%TF.GenerationSoftware,KiCad,Pcbnew,9.0.2*%
%TF.CreationDate,2025-08-01T00:08:25-07:00*%
%TF.ProjectId,macropad,6d616372-6f70-4616-942e-6b696361645f,rev?*%
%TF.SameCoordinates,Original*%
%TF.FileFunction,Soldermask,Top*%
%TF.FilePolarity,Negative*%
%FSLAX46Y46*%
G04 Gerber Fmt 4.6, Leading zero omitted, Abs format (unit mm)*
G04 Created by KiCad (PCBNEW 9.0.2) date 2025-08-01 00:08:25*
%MOMM*%
%LPD*%
G01*
G04 APERTURE LIST*
G04 Aperture macros list*
%AMRoundRect*
0 Rectangle with rounded corners*
0 $1 Rounding radius*
0 $2 $3 $4 $5 $6 $7 $8 $9 X,Y pos of 4 corners*
0 Add a 4 corners polygon primitive as box body*
4,1,4,$2,$3,$4,$5,$6,$7,$8,$9,$2,$3,0*
0 Add four circle primitives for the rounded corners*
1,1,$1+$1,$2,$3*
1,1,$1+$1,$4,$5*
1,1,$1+$1,$6,$7*
1,1,$1+$1,$8,$9*
0 Add four rect primitives between the rounded corners*
20,1,$1+$1,$2,$3,$4,$5,0*
20,1,$1+$1,$4,$5,$6,$7,0*
20,1,$1+$1,$6,$7,$8,$9,0*
20,1,$1+$1,$8,$9,$2,$3,0*%
G04 Aperture macros list end*
%ADD10R,1.600000X0.850000*%
%ADD11C,1.600000*%
%ADD12RoundRect,0.250000X-0.550000X0.550000X-0.550000X-0.550000X0.550000X-0.550000X0.550000X0.550000X0*%
%ADD13RoundRect,0.250000X0.550000X-0.550000X0.550000X0.550000X-0.550000X0.550000X-0.550000X-0.550000X0*%
%ADD14RoundRect,0.152400X1.063600X0.609600X-1.063600X0.609600X-1.063600X-0.609600X1.063600X-0.609600X0*%
%ADD15C,1.524000*%
%ADD16RoundRect,0.152400X-1.063600X-0.609600X1.063600X-0.609600X1.063600X0.609600X-1.063600X0.609600X0*%
%ADD17C,1.700000*%
%ADD18C,4.000000*%
%ADD19C,2.200000*%
%ADD20R,2.000000X2.000000*%
%ADD21C,2.000000*%
%ADD22C,3.200000*%
G04 APERTURE END LIST*
D10*
%TO.C,D3*%
X72872500Y-50290000D03*
X72872500Y-52040000D03*
X69372500Y-52040000D03*
X69372500Y-50290000D03*
%TD*%
%TO.C,D2*%
X60900000Y-52325000D03*
X60900000Y-50575000D03*
X64400000Y-50575000D03*
X64400000Y-52325000D03*
%TD*%
%TO.C,D4*%
X72872500Y-55410000D03*
X72872500Y-57160000D03*
X69372500Y-57160000D03*
X69372500Y-55410000D03*
%TD*%
%TO.C,D5*%
X72872500Y-60530000D03*
X72872500Y-62280000D03*
X69372500Y-62280000D03*
X69372500Y-60530000D03*
%TD*%
%TO.C,D6*%
X72872500Y-65650000D03*
X72872500Y-67400000D03*
X69372500Y-67400000D03*
X69372500Y-65650000D03*
%TD*%
%TO.C,D1*%
X64300000Y-55200000D03*
X64300000Y-56950000D03*
X60800000Y-56950000D03*
X60800000Y-55200000D03*
%TD*%
D11*
%TO.C,D13*%
X108400000Y-59010000D03*
D12*
X108400000Y-51390000D03*
%TD*%
D11*
%TO.C,D14*%
X104850000Y-59010000D03*
D12*
X104850000Y-51390000D03*
%TD*%
D11*
%TO.C,D12*%
X101300000Y-70370000D03*
D12*
X101300000Y-62750000D03*
%TD*%
D11*
%TO.C,D7*%
X64750000Y-61140000D03*
D13*
X64750000Y-68760000D03*
%TD*%
D11*
%TO.C,D9*%
X101450000Y-59010000D03*
D12*
X101450000Y-51390000D03*
%TD*%
D11*
%TO.C,D10*%
X108400000Y-70370000D03*
D12*
X108400000Y-62750000D03*
%TD*%
D11*
%TO.C,D8*%
X61250000Y-61140000D03*
D13*
X61250000Y-68760000D03*
%TD*%
D11*
%TO.C,D11*%
X104850000Y-70370000D03*
D12*
X104850000Y-62750000D03*
%TD*%
D14*
%TO.C,U1*%
X77635000Y-52160000D03*
D15*
X78470000Y-52160000D03*
D14*
X77635000Y-54700000D03*
D15*
X78470000Y-54700000D03*
D14*
X77635000Y-57240000D03*
D15*
X78470000Y-57240000D03*
D14*
X77635000Y-59780000D03*
D15*
X78470000Y-59780000D03*
D14*
X77635000Y-62320000D03*
D15*
X78470000Y-62320000D03*
D14*
X77635000Y-64860000D03*
D15*
X78470000Y-64860000D03*
D14*
X77635000Y-67400000D03*
D15*
X78470000Y-67400000D03*
X93710000Y-67400000D03*
D16*
X94545000Y-67400000D03*
D15*
X93710000Y-64860000D03*
D16*
X94545000Y-64860000D03*
D15*
X93710000Y-62320000D03*
D16*
X94545000Y-62320000D03*
D15*
X93710000Y-59780000D03*
D16*
X94545000Y-59780000D03*
D15*
X93710000Y-57240000D03*
D16*
X94545000Y-57240000D03*
D15*
X93710000Y-54700000D03*
D16*
X94545000Y-54700000D03*
D15*
X93710000Y-52160000D03*
D16*
X94545000Y-52160000D03*
%TD*%
D17*
%TO.C,SW9*%
X99695000Y-119062500D03*
D18*
X104775000Y-119062500D03*
D17*
X109855000Y-119062500D03*
D19*
X107315000Y-113982500D03*
X100965000Y-116522500D03*
%TD*%
D17*
%TO.C,SW8*%
X99695000Y-100012500D03*
D18*
X104775000Y-100012500D03*
D17*
X109855000Y-100012500D03*
D19*
X107315000Y-94932500D03*
X100965000Y-97472500D03*
%TD*%
D17*
%TO.C,SW3*%
X80645000Y-100012500D03*
D18*
X85725000Y-100012500D03*
D17*
X90805000Y-100012500D03*
D19*
X88265000Y-94932500D03*
X81915000Y-97472500D03*
%TD*%
D17*
%TO.C,SW1*%
X61595000Y-80962500D03*
D18*
X66675000Y-80962500D03*
D17*
X71755000Y-80962500D03*
D19*
X69215000Y-75882500D03*
X62865000Y-78422500D03*
%TD*%
D17*
%TO.C,SW6*%
X80645000Y-119062500D03*
D18*
X85725000Y-119062500D03*
D17*
X90805000Y-119062500D03*
D19*
X88265000Y-113982500D03*
X81915000Y-116522500D03*
%TD*%
D17*
%TO.C,SW4*%
X61595000Y-100012500D03*
D18*
X66675000Y-100012500D03*
D17*
X71755000Y-100012500D03*
D19*
X69215000Y-94932500D03*
X62865000Y-97472500D03*
%TD*%
D17*
%TO.C,SW5*%
X61595000Y-119062500D03*
D18*
X66675000Y-119062500D03*
D17*
X71755000Y-119062500D03*
D19*
X69215000Y-113982500D03*
X62865000Y-116522500D03*
%TD*%
D17*
%TO.C,SW2*%
X80645000Y-80962500D03*
D18*
X85725000Y-80962500D03*
D17*
X90805000Y-80962500D03*
D19*
X88265000Y-75882500D03*
X81915000Y-78422500D03*
%TD*%
D20*
%TO.C,SW7*%
X97418750Y-78343750D03*
D21*
X97418750Y-83343750D03*
X97418750Y-80843750D03*
D22*
X104918750Y-75243750D03*
X104918750Y-86443750D03*
D21*
X111918750Y-83343750D03*
X111918750Y-78343750D03*
%TD*%
M02*
