%TF.GenerationSoftware,KiCad,Pcbnew,9.0.2*%
%TF.CreationDate,2025-08-01T00:08:25-07:00*%
%TF.ProjectId,macropad,6d616372-6f70-4616-942e-6b696361645f,rev?*%
%TF.SameCoordinates,Original*%
%TF.FileFunction,Copper,L2,Bot*%
%TF.FilePolarity,Positive*%
%FSLAX46Y46*%
G04 Gerber Fmt 4.6, Leading zero omitted, Abs format (unit mm)*
G04 Created by KiCad (PCBNEW 9.0.2) date 2025-08-01 00:08:25*
%MOMM*%
%LPD*%
G01*
G04 APERTURE LIST*
G04 Aperture macros list*
%AMRoundRect*
0 Rectangle with rounded corners*
0 $1 Rounding radius*
0 $2 $3 $4 $5 $6 $7 $8 $9 X,Y pos of 4 corners*
0 Add a 4 corners polygon primitive as box body*
4,1,4,$2,$3,$4,$5,$6,$7,$8,$9,$2,$3,0*
0 Add four circle primitives for the rounded corners*
1,1,$1+$1,$2,$3*
1,1,$1+$1,$4,$5*
1,1,$1+$1,$6,$7*
1,1,$1+$1,$8,$9*
0 Add four rect primitives between the rounded corners*
20,1,$1+$1,$2,$3,$4,$5,0*
20,1,$1+$1,$4,$5,$6,$7,0*
20,1,$1+$1,$6,$7,$8,$9,0*
20,1,$1+$1,$8,$9,$2,$3,0*%
G04 Aperture macros list end*
%TA.AperFunction,ComponentPad*%
%ADD10C,1.600000*%
%TD*%
%TA.AperFunction,ComponentPad*%
%ADD11RoundRect,0.250000X-0.550000X0.550000X-0.550000X-0.550000X0.550000X-0.550000X0.550000X0.550000X0*%
%TD*%
%TA.AperFunction,ComponentPad*%
%ADD12RoundRect,0.250000X0.550000X-0.550000X0.550000X0.550000X-0.550000X0.550000X-0.550000X-0.550000X0*%
%TD*%
%TA.AperFunction,ComponentPad*%
%ADD13C,1.524000*%
%TD*%
%TA.AperFunction,ComponentPad*%
%ADD14C,2.200000*%
%TD*%
%TA.AperFunction,ComponentPad*%
%ADD15R,2.000000X2.000000*%
%TD*%
%TA.AperFunction,ComponentPad*%
%ADD16C,2.000000*%
%TD*%
%TA.AperFunction,ComponentPad*%
%ADD17C,3.200000*%
%TD*%
%TA.AperFunction,ViaPad*%
%ADD18C,0.600000*%
%TD*%
%TA.AperFunction,Conductor*%
%ADD19C,0.200000*%
%TD*%
G04 APERTURE END LIST*
D10*
%TO.P,D13,2,A*%
%TO.N,Net-(D13-A)*%
X108400000Y-59010000D03*
D11*
%TO.P,D13,1,K*%
%TO.N,Net-(D10-K)*%
X108400000Y-51390000D03*
%TD*%
D10*
%TO.P,D14,2,A*%
%TO.N,Net-(D14-A)*%
X104850000Y-59010000D03*
D11*
%TO.P,D14,1,K*%
%TO.N,Net-(D11-K)*%
X104850000Y-51390000D03*
%TD*%
D10*
%TO.P,D12,2,A*%
%TO.N,Net-(D12-A)*%
X101300000Y-70370000D03*
D11*
%TO.P,D12,1,K*%
%TO.N,Net-(D12-K)*%
X101300000Y-62750000D03*
%TD*%
D10*
%TO.P,D7,2,A*%
%TO.N,Net-(D7-A)*%
X64750000Y-61140000D03*
D12*
%TO.P,D7,1,K*%
%TO.N,Net-(D10-K)*%
X64750000Y-68760000D03*
%TD*%
D10*
%TO.P,D9,2,A*%
%TO.N,Net-(D9-A)*%
X101450000Y-59010000D03*
D11*
%TO.P,D9,1,K*%
%TO.N,Net-(D12-K)*%
X101450000Y-51390000D03*
%TD*%
D10*
%TO.P,D10,2,A*%
%TO.N,Net-(D10-A)*%
X108400000Y-70370000D03*
D11*
%TO.P,D10,1,K*%
%TO.N,Net-(D10-K)*%
X108400000Y-62750000D03*
%TD*%
D10*
%TO.P,D8,2,A*%
%TO.N,Net-(D8-A)*%
X61250000Y-61140000D03*
D12*
%TO.P,D8,1,K*%
%TO.N,Net-(D11-K)*%
X61250000Y-68760000D03*
%TD*%
D10*
%TO.P,D11,2,A*%
%TO.N,Net-(D11-A)*%
X104850000Y-70370000D03*
D11*
%TO.P,D11,1,K*%
%TO.N,Net-(D11-K)*%
X104850000Y-62750000D03*
%TD*%
D13*
%TO.P,U1,1,GPIO26/ADC0/A0*%
%TO.N,unconnected-(U1-GPIO26{slash}ADC0{slash}A0-Pad1)*%
X78470000Y-52160000D03*
%TO.P,U1,2,GPIO27/ADC1/A1*%
%TO.N,Net-(U1-GPIO27{slash}ADC1{slash}A1)*%
X78470000Y-54700000D03*
%TO.P,U1,3,GPIO28/ADC2/A2*%
%TO.N,Net-(U1-GPIO28{slash}ADC2{slash}A2)*%
X78470000Y-57240000D03*
%TO.P,U1,4,GPIO29/ADC3/A3*%
%TO.N,Net-(U1-GPIO29{slash}ADC3{slash}A3)*%
X78470000Y-59780000D03*
%TO.P,U1,5,GPIO6/SDA*%
%TO.N,Net-(D1-DIN)*%
X78470000Y-62320000D03*
%TO.P,U1,6,GPIO7/SCL*%
%TO.N,Net-(U1-GPIO7{slash}SCL)*%
X78470000Y-64860000D03*
%TO.P,U1,7,GPIO0/TX*%
%TO.N,Net-(U1-GPIO0{slash}TX)*%
X78470000Y-67400000D03*
%TO.P,U1,8,GPIO1/RX*%
%TO.N,Net-(U1-GPIO1{slash}RX)*%
X93710000Y-67400000D03*
%TO.P,U1,9,GPIO2/SCK*%
%TO.N,Net-(D12-K)*%
X93710000Y-64860000D03*
%TO.P,U1,10,GPIO4/MISO*%
%TO.N,Net-(D11-K)*%
X93710000Y-62320000D03*
%TO.P,U1,11,GPIO3/MOSI*%
%TO.N,Net-(D10-K)*%
X93710000Y-59780000D03*
%TO.P,U1,12,3V3*%
%TO.N,unconnected-(U1-3V3-Pad12)*%
X93710000Y-57240000D03*
%TO.P,U1,13,GND*%
%TO.N,GND*%
X93710000Y-54700000D03*
%TO.P,U1,14,VBUS*%
%TO.N,+5V*%
X93710000Y-52160000D03*
%TD*%
D14*
%TO.P,SW9,1,1*%
%TO.N,Net-(D14-A)*%
X107315000Y-113982500D03*
%TO.P,SW9,2,2*%
%TO.N,Net-(U1-GPIO27{slash}ADC1{slash}A1)*%
X100965000Y-116522500D03*
%TD*%
%TO.P,SW8,1,1*%
%TO.N,Net-(D13-A)*%
X107315000Y-94932500D03*
%TO.P,SW8,2,2*%
%TO.N,Net-(U1-GPIO27{slash}ADC1{slash}A1)*%
X100965000Y-97472500D03*
%TD*%
%TO.P,SW3,1,1*%
%TO.N,Net-(D9-A)*%
X88265000Y-94932500D03*
%TO.P,SW3,2,2*%
%TO.N,Net-(U1-GPIO1{slash}RX)*%
X81915000Y-97472500D03*
%TD*%
%TO.P,SW1,1,1*%
%TO.N,Net-(D7-A)*%
X69215000Y-75882500D03*
%TO.P,SW1,2,2*%
%TO.N,Net-(U1-GPIO1{slash}RX)*%
X62865000Y-78422500D03*
%TD*%
%TO.P,SW6,1,1*%
%TO.N,Net-(D12-A)*%
X88265000Y-113982500D03*
%TO.P,SW6,2,2*%
%TO.N,Net-(U1-GPIO7{slash}SCL)*%
X81915000Y-116522500D03*
%TD*%
%TO.P,SW4,1,1*%
%TO.N,Net-(D10-A)*%
X69215000Y-94932500D03*
%TO.P,SW4,2,2*%
%TO.N,Net-(U1-GPIO7{slash}SCL)*%
X62865000Y-97472500D03*
%TD*%
%TO.P,SW5,1,1*%
%TO.N,Net-(D11-A)*%
X69215000Y-113982500D03*
%TO.P,SW5,2,2*%
%TO.N,Net-(U1-GPIO7{slash}SCL)*%
X62865000Y-116522500D03*
%TD*%
%TO.P,SW2,1,1*%
%TO.N,Net-(D8-A)*%
X88265000Y-75882500D03*
%TO.P,SW2,2,2*%
%TO.N,Net-(U1-GPIO1{slash}RX)*%
X81915000Y-78422500D03*
%TD*%
D15*
%TO.P,SW7,A,A*%
%TO.N,Net-(U1-GPIO29{slash}ADC3{slash}A3)*%
X97418750Y-78343750D03*
D16*
%TO.P,SW7,B,B*%
%TO.N,Net-(U1-GPIO28{slash}ADC2{slash}A2)*%
X97418750Y-83343750D03*
%TO.P,SW7,C,C*%
%TO.N,GND*%
X97418750Y-80843750D03*
D17*
%TO.P,SW7,MP*%
%TO.N,N/C*%
X104918750Y-75243750D03*
X104918750Y-86443750D03*
D16*
%TO.P,SW7,S1,S1*%
%TO.N,Net-(U1-GPIO0{slash}TX)*%
X111918750Y-83343750D03*
%TO.P,SW7,S2,S2*%
%TO.N,GND*%
X111918750Y-78343750D03*
%TD*%
D18*
%TO.N,Net-(D1-DOUT)*%
X62350000Y-51700000D03*
X61750000Y-53850000D03*
%TO.N,GND*%
X67750000Y-58450000D03*
X69400000Y-58150000D03*
%TO.N,Net-(U1-GPIO29{slash}ADC3{slash}A3)*%
X95800000Y-74950000D03*
X93800000Y-76550000D03*
X79800000Y-62900000D03*
%TO.N,Net-(D12-K)*%
X97850000Y-63350000D03*
X96300000Y-63700000D03*
%TO.N,Net-(D11-K)*%
X96700000Y-61150000D03*
X103500000Y-62250000D03*
%TO.N,Net-(D8-A)*%
X68500000Y-72250000D03*
%TO.N,Net-(U1-GPIO28{slash}ADC2{slash}A2)*%
X80550000Y-62200000D03*
%TO.N,Net-(D10-K)*%
X67850000Y-68700000D03*
X81700000Y-62150000D03*
X83250000Y-62050000D03*
%TO.N,GND*%
X98850000Y-56150000D03*
X105950000Y-61450000D03*
%TO.N,Net-(D9-A)*%
X91300000Y-76700000D03*
X88300000Y-91200000D03*
X98000000Y-61250000D03*
%TO.N,Net-(U1-GPIO27{slash}ADC1{slash}A1)*%
X82950000Y-76300000D03*
%TO.N,GND*%
X67350000Y-52500000D03*
X68000000Y-55350000D03*
X68000000Y-56300000D03*
%TO.N,Net-(D11-K)*%
X67200000Y-70600000D03*
X83150000Y-69200000D03*
%TO.N,Net-(D1-DIN)*%
X69600000Y-59300000D03*
%TO.N,Net-(D10-K)*%
X98950000Y-60450000D03*
X104150000Y-60850000D03*
X107350000Y-60850000D03*
%TO.N,Net-(D13-A)*%
X109700000Y-61100000D03*
%TO.N,Net-(D10-A)*%
X89150000Y-89950000D03*
%TO.N,Net-(D12-A)*%
X100150000Y-72300000D03*
%TO.N,Net-(U1-GPIO0{slash}TX)*%
X94450000Y-83700000D03*
%TO.N,+5V*%
X71000000Y-50600000D03*
X71750000Y-54200000D03*
%TD*%
D19*
%TO.N,Net-(D1-DOUT)*%
X62500000Y-52550000D02*
X62500000Y-51850000D01*
X62500000Y-53100000D02*
X62500000Y-52550000D01*
X62500000Y-51850000D02*
X62350000Y-51700000D01*
X61750000Y-53850000D02*
X62500000Y-53100000D01*
%TO.N,GND*%
X69100000Y-58450000D02*
X69400000Y-58150000D01*
X67750000Y-58450000D02*
X69100000Y-58450000D01*
%TO.N,Net-(U1-GPIO29{slash}ADC3{slash}A3)*%
X83700000Y-66650000D02*
X93600000Y-76550000D01*
X93600000Y-76550000D02*
X93800000Y-76550000D01*
X79800000Y-62900000D02*
X83550000Y-66650000D01*
X83550000Y-66650000D02*
X83700000Y-66650000D01*
X95800000Y-74950000D02*
X95800000Y-76725000D01*
X95800000Y-76725000D02*
X97418750Y-78343750D01*
%TO.N,Net-(D12-K)*%
X96300000Y-63700000D02*
X97500000Y-63700000D01*
X97500000Y-63700000D02*
X97850000Y-63350000D01*
%TO.N,Net-(D11-K)*%
X103500000Y-63300000D02*
X103500000Y-62250000D01*
X102400000Y-64000000D02*
X102600000Y-64200000D01*
X102600000Y-64200000D02*
X103500000Y-63300000D01*
X96700000Y-61250000D02*
X98600000Y-63150000D01*
X99600000Y-63150000D02*
X100450000Y-64000000D01*
X96700000Y-61150000D02*
X96700000Y-61250000D01*
X98600000Y-63150000D02*
X99600000Y-63150000D01*
X100450000Y-64000000D02*
X102400000Y-64000000D01*
%TO.N,Net-(D8-A)*%
X68500000Y-72250000D02*
X84632500Y-72250000D01*
X84632500Y-72250000D02*
X88265000Y-75882500D01*
%TO.N,Net-(U1-GPIO28{slash}ADC2{slash}A2)*%
X95550000Y-77200000D02*
X95550000Y-82100000D01*
X95550000Y-82100000D02*
X96793750Y-83343750D01*
X96793750Y-83343750D02*
X97418750Y-83343750D01*
X80550000Y-62200000D02*
X95550000Y-77200000D01*
%TO.N,Net-(D10-K)*%
X83250000Y-62050000D02*
X82100000Y-62050000D01*
X82100000Y-62050000D02*
X81850000Y-62300000D01*
X81850000Y-62300000D02*
X81700000Y-62150000D01*
X64810000Y-68700000D02*
X64750000Y-68760000D01*
X67850000Y-68700000D02*
X64810000Y-68700000D01*
%TO.N,GND*%
X104474265Y-60325736D02*
X100298529Y-56150000D01*
X105950000Y-61450000D02*
X104825736Y-60325736D01*
X100298529Y-56150000D02*
X98850000Y-56150000D01*
X104825736Y-60325736D02*
X104474265Y-60325736D01*
%TO.N,Net-(D9-A)*%
X98000000Y-61250000D02*
X98000000Y-59000000D01*
X88300000Y-91200000D02*
X88300000Y-84250000D01*
X89500000Y-78500000D02*
X91300000Y-76700000D01*
X89500000Y-83050000D02*
X89500000Y-78500000D01*
X98000000Y-59000000D02*
X98300000Y-58700000D01*
X101140000Y-58700000D02*
X101450000Y-59010000D01*
X88300000Y-84250000D02*
X89500000Y-83050000D01*
X98300000Y-58700000D02*
X101140000Y-58700000D01*
%TO.N,Net-(U1-GPIO27{slash}ADC1{slash}A1)*%
X91000000Y-92200000D02*
X96272500Y-97472500D01*
X96272500Y-97472500D02*
X100965000Y-97472500D01*
X82950000Y-76300000D02*
X85150000Y-76300000D01*
X88650000Y-83150000D02*
X86250000Y-85550000D01*
X85150000Y-76300000D02*
X88300000Y-79450000D01*
X86250000Y-92200000D02*
X91000000Y-92200000D01*
X88300000Y-79450000D02*
X88300000Y-82800000D01*
X88300000Y-82800000D02*
X88650000Y-83150000D01*
X86250000Y-85550000D02*
X86250000Y-92200000D01*
%TO.N,GND*%
X68000000Y-55350000D02*
X68000000Y-53150000D01*
X68000000Y-53150000D02*
X67350000Y-52500000D01*
X75900000Y-56300000D02*
X76400000Y-55800000D01*
X92610000Y-55800000D02*
X93710000Y-54700000D01*
X68000000Y-56300000D02*
X75900000Y-56300000D01*
X76400000Y-55800000D02*
X92610000Y-55800000D01*
%TO.N,Net-(D11-K)*%
X83150000Y-69050000D02*
X83150000Y-69200000D01*
X67200000Y-70600000D02*
X68750000Y-69050000D01*
X68750000Y-69050000D02*
X83150000Y-69050000D01*
%TO.N,Net-(D1-DIN)*%
X69600000Y-59300000D02*
X75450000Y-59300000D01*
X75450000Y-59300000D02*
X78470000Y-62320000D01*
%TO.N,Net-(D10-K)*%
X104150000Y-60850000D02*
X99350000Y-60850000D01*
X99350000Y-60850000D02*
X98950000Y-60450000D01*
X107350000Y-60850000D02*
X106900000Y-60400000D01*
X106900000Y-60400000D02*
X106900000Y-52890000D01*
X106900000Y-52890000D02*
X108400000Y-51390000D01*
%TO.N,Net-(D13-A)*%
X109700000Y-61100000D02*
X109700000Y-60310000D01*
X109700000Y-60310000D02*
X108400000Y-59010000D01*
%TO.N,Net-(D10-A)*%
X89150000Y-89950000D02*
X93400000Y-89950000D01*
X93400000Y-89950000D02*
X107200000Y-76150000D01*
X107200000Y-76150000D02*
X107800000Y-76150000D01*
X107800000Y-76150000D02*
X108400000Y-75550000D01*
X108400000Y-75550000D02*
X108400000Y-70370000D01*
%TO.N,Net-(D12-A)*%
X101300000Y-71150000D02*
X101300000Y-70370000D01*
X100150000Y-72300000D02*
X101300000Y-71150000D01*
%TO.N,Net-(U1-GPIO0{slash}TX)*%
X83550000Y-67400000D02*
X78470000Y-67400000D01*
X94450000Y-78300000D02*
X83550000Y-67400000D01*
X94450000Y-83700000D02*
X94450000Y-78300000D01*
%TO.N,+5V*%
X71000000Y-53450000D02*
X71750000Y-54200000D01*
X71000000Y-50600000D02*
X71000000Y-53450000D01*
%TD*%
M02*
