%TF.GenerationSoftware,KiCad,Pcbnew,9.0.2*%
%TF.CreationDate,2025-08-01T00:08:24-07:00*%
%TF.ProjectId,macropad,6d616372-6f70-4616-942e-6b696361645f,rev?*%
%TF.SameCoordinates,Original*%
%TF.FileFunction,Copper,L1,Top*%
%TF.FilePolarity,Positive*%
%FSLAX46Y46*%
G04 Gerber Fmt 4.6, Leading zero omitted, Abs format (unit mm)*
G04 Created by KiCad (PCBNEW 9.0.2) date 2025-08-01 00:08:24*
%MOMM*%
%LPD*%
G01*
G04 APERTURE LIST*
G04 Aperture macros list*
%AMRoundRect*
0 Rectangle with rounded corners*
0 $1 Rounding radius*
0 $2 $3 $4 $5 $6 $7 $8 $9 X,Y pos of 4 corners*
0 Add a 4 corners polygon primitive as box body*
4,1,4,$2,$3,$4,$5,$6,$7,$8,$9,$2,$3,0*
0 Add four circle primitives for the rounded corners*
1,1,$1+$1,$2,$3*
1,1,$1+$1,$4,$5*
1,1,$1+$1,$6,$7*
1,1,$1+$1,$8,$9*
0 Add four rect primitives between the rounded corners*
20,1,$1+$1,$2,$3,$4,$5,0*
20,1,$1+$1,$4,$5,$6,$7,0*
20,1,$1+$1,$6,$7,$8,$9,0*
20,1,$1+$1,$8,$9,$2,$3,0*%
G04 Aperture macros list end*
%TA.AperFunction,SMDPad,CuDef*%
%ADD10R,1.600000X0.850000*%
%TD*%
%TA.AperFunction,ComponentPad*%
%ADD11C,1.600000*%
%TD*%
%TA.AperFunction,ComponentPad*%
%ADD12RoundRect,0.250000X-0.550000X0.550000X-0.550000X-0.550000X0.550000X-0.550000X0.550000X0.550000X0*%
%TD*%
%TA.AperFunction,ComponentPad*%
%ADD13RoundRect,0.250000X0.550000X-0.550000X0.550000X0.550000X-0.550000X0.550000X-0.550000X-0.550000X0*%
%TD*%
%TA.AperFunction,SMDPad,CuDef*%
%ADD14RoundRect,0.152400X1.063600X0.609600X-1.063600X0.609600X-1.063600X-0.609600X1.063600X-0.609600X0*%
%TD*%
%TA.AperFunction,ComponentPad*%
%ADD15C,1.524000*%
%TD*%
%TA.AperFunction,SMDPad,CuDef*%
%ADD16RoundRect,0.152400X-1.063600X-0.609600X1.063600X-0.609600X1.063600X0.609600X-1.063600X0.609600X0*%
%TD*%
%TA.AperFunction,ComponentPad*%
%ADD17C,2.200000*%
%TD*%
%TA.AperFunction,ComponentPad*%
%ADD18R,2.000000X2.000000*%
%TD*%
%TA.AperFunction,ComponentPad*%
%ADD19C,2.000000*%
%TD*%
%TA.AperFunction,ComponentPad*%
%ADD20C,3.200000*%
%TD*%
%TA.AperFunction,ViaPad*%
%ADD21C,0.600000*%
%TD*%
%TA.AperFunction,Conductor*%
%ADD22C,0.200000*%
%TD*%
G04 APERTURE END LIST*
D10*
%TO.P,D3,4,VDD*%
%TO.N,+5V*%
X72872500Y-50290000D03*
%TO.P,D3,3,DIN*%
%TO.N,Net-(D2-DOUT)*%
X72872500Y-52040000D03*
%TO.P,D3,2,VSS*%
%TO.N,GND*%
X69372500Y-52040000D03*
%TO.P,D3,1,DOUT*%
%TO.N,Net-(D3-DOUT)*%
X69372500Y-50290000D03*
%TD*%
%TO.P,D2,4,VDD*%
%TO.N,+5V*%
X60900000Y-52325000D03*
%TO.P,D2,3,DIN*%
%TO.N,Net-(D1-DOUT)*%
X60900000Y-50575000D03*
%TO.P,D2,2,VSS*%
%TO.N,GND*%
X64400000Y-50575000D03*
%TO.P,D2,1,DOUT*%
%TO.N,Net-(D2-DOUT)*%
X64400000Y-52325000D03*
%TD*%
%TO.P,D4,4,VDD*%
%TO.N,+5V*%
X72872500Y-55410000D03*
%TO.P,D4,3,DIN*%
%TO.N,Net-(D3-DOUT)*%
X72872500Y-57160000D03*
%TO.P,D4,2,VSS*%
%TO.N,GND*%
X69372500Y-57160000D03*
%TO.P,D4,1,DOUT*%
%TO.N,Net-(D4-DOUT)*%
X69372500Y-55410000D03*
%TD*%
%TO.P,D5,4,VDD*%
%TO.N,+5V*%
X72872500Y-60530000D03*
%TO.P,D5,3,DIN*%
%TO.N,Net-(D4-DOUT)*%
X72872500Y-62280000D03*
%TO.P,D5,2,VSS*%
%TO.N,GND*%
X69372500Y-62280000D03*
%TO.P,D5,1,DOUT*%
%TO.N,Net-(D5-DOUT)*%
X69372500Y-60530000D03*
%TD*%
%TO.P,D6,4,VDD*%
%TO.N,+5V*%
X72872500Y-65650000D03*
%TO.P,D6,3,DIN*%
%TO.N,Net-(D5-DOUT)*%
X72872500Y-67400000D03*
%TO.P,D6,2,VSS*%
%TO.N,GND*%
X69372500Y-67400000D03*
%TO.P,D6,1,DOUT*%
%TO.N,unconnected-(D6-DOUT-Pad1)*%
X69372500Y-65650000D03*
%TD*%
%TO.P,D1,4,VDD*%
%TO.N,+5V*%
X64300000Y-55200000D03*
%TO.P,D1,3,DIN*%
%TO.N,Net-(D1-DIN)*%
X64300000Y-56950000D03*
%TO.P,D1,2,VSS*%
%TO.N,GND*%
X60800000Y-56950000D03*
%TO.P,D1,1,DOUT*%
%TO.N,Net-(D1-DOUT)*%
X60800000Y-55200000D03*
%TD*%
D11*
%TO.P,D13,2,A*%
%TO.N,Net-(D13-A)*%
X108400000Y-59010000D03*
D12*
%TO.P,D13,1,K*%
%TO.N,Net-(D10-K)*%
X108400000Y-51390000D03*
%TD*%
D11*
%TO.P,D14,2,A*%
%TO.N,Net-(D14-A)*%
X104850000Y-59010000D03*
D12*
%TO.P,D14,1,K*%
%TO.N,Net-(D11-K)*%
X104850000Y-51390000D03*
%TD*%
D11*
%TO.P,D12,2,A*%
%TO.N,Net-(D12-A)*%
X101300000Y-70370000D03*
D12*
%TO.P,D12,1,K*%
%TO.N,Net-(D12-K)*%
X101300000Y-62750000D03*
%TD*%
D11*
%TO.P,D7,2,A*%
%TO.N,Net-(D7-A)*%
X64750000Y-61140000D03*
D13*
%TO.P,D7,1,K*%
%TO.N,Net-(D10-K)*%
X64750000Y-68760000D03*
%TD*%
D11*
%TO.P,D9,2,A*%
%TO.N,Net-(D9-A)*%
X101450000Y-59010000D03*
D12*
%TO.P,D9,1,K*%
%TO.N,Net-(D12-K)*%
X101450000Y-51390000D03*
%TD*%
D11*
%TO.P,D10,2,A*%
%TO.N,Net-(D10-A)*%
X108400000Y-70370000D03*
D12*
%TO.P,D10,1,K*%
%TO.N,Net-(D10-K)*%
X108400000Y-62750000D03*
%TD*%
D11*
%TO.P,D8,2,A*%
%TO.N,Net-(D8-A)*%
X61250000Y-61140000D03*
D13*
%TO.P,D8,1,K*%
%TO.N,Net-(D11-K)*%
X61250000Y-68760000D03*
%TD*%
D11*
%TO.P,D11,2,A*%
%TO.N,Net-(D11-A)*%
X104850000Y-70370000D03*
D12*
%TO.P,D11,1,K*%
%TO.N,Net-(D11-K)*%
X104850000Y-62750000D03*
%TD*%
D14*
%TO.P,U1,1,GPIO26/ADC0/A0*%
%TO.N,unconnected-(U1-GPIO26{slash}ADC0{slash}A0-Pad1)*%
X77635000Y-52160000D03*
D15*
X78470000Y-52160000D03*
D14*
%TO.P,U1,2,GPIO27/ADC1/A1*%
%TO.N,Net-(U1-GPIO27{slash}ADC1{slash}A1)*%
X77635000Y-54700000D03*
D15*
X78470000Y-54700000D03*
D14*
%TO.P,U1,3,GPIO28/ADC2/A2*%
%TO.N,Net-(U1-GPIO28{slash}ADC2{slash}A2)*%
X77635000Y-57240000D03*
D15*
X78470000Y-57240000D03*
D14*
%TO.P,U1,4,GPIO29/ADC3/A3*%
%TO.N,Net-(U1-GPIO29{slash}ADC3{slash}A3)*%
X77635000Y-59780000D03*
D15*
X78470000Y-59780000D03*
D14*
%TO.P,U1,5,GPIO6/SDA*%
%TO.N,Net-(D1-DIN)*%
X77635000Y-62320000D03*
D15*
X78470000Y-62320000D03*
D14*
%TO.P,U1,6,GPIO7/SCL*%
%TO.N,Net-(U1-GPIO7{slash}SCL)*%
X77635000Y-64860000D03*
D15*
X78470000Y-64860000D03*
D14*
%TO.P,U1,7,GPIO0/TX*%
%TO.N,Net-(U1-GPIO0{slash}TX)*%
X77635000Y-67400000D03*
D15*
X78470000Y-67400000D03*
%TO.P,U1,8,GPIO1/RX*%
%TO.N,Net-(U1-GPIO1{slash}RX)*%
X93710000Y-67400000D03*
D16*
X94545000Y-67400000D03*
D15*
%TO.P,U1,9,GPIO2/SCK*%
%TO.N,Net-(D12-K)*%
X93710000Y-64860000D03*
D16*
X94545000Y-64860000D03*
D15*
%TO.P,U1,10,GPIO4/MISO*%
%TO.N,Net-(D11-K)*%
X93710000Y-62320000D03*
D16*
X94545000Y-62320000D03*
D15*
%TO.P,U1,11,GPIO3/MOSI*%
%TO.N,Net-(D10-K)*%
X93710000Y-59780000D03*
D16*
X94545000Y-59780000D03*
D15*
%TO.P,U1,12,3V3*%
%TO.N,unconnected-(U1-3V3-Pad12)*%
X93710000Y-57240000D03*
D16*
X94545000Y-57240000D03*
D15*
%TO.P,U1,13,GND*%
%TO.N,GND*%
X93710000Y-54700000D03*
D16*
X94545000Y-54700000D03*
D15*
%TO.P,U1,14,VBUS*%
%TO.N,+5V*%
X93710000Y-52160000D03*
D16*
X94545000Y-52160000D03*
%TD*%
D17*
%TO.P,SW9,1,1*%
%TO.N,Net-(D14-A)*%
X107315000Y-113982500D03*
%TO.P,SW9,2,2*%
%TO.N,Net-(U1-GPIO27{slash}ADC1{slash}A1)*%
X100965000Y-116522500D03*
%TD*%
%TO.P,SW8,1,1*%
%TO.N,Net-(D13-A)*%
X107315000Y-94932500D03*
%TO.P,SW8,2,2*%
%TO.N,Net-(U1-GPIO27{slash}ADC1{slash}A1)*%
X100965000Y-97472500D03*
%TD*%
%TO.P,SW3,1,1*%
%TO.N,Net-(D9-A)*%
X88265000Y-94932500D03*
%TO.P,SW3,2,2*%
%TO.N,Net-(U1-GPIO1{slash}RX)*%
X81915000Y-97472500D03*
%TD*%
%TO.P,SW1,1,1*%
%TO.N,Net-(D7-A)*%
X69215000Y-75882500D03*
%TO.P,SW1,2,2*%
%TO.N,Net-(U1-GPIO1{slash}RX)*%
X62865000Y-78422500D03*
%TD*%
%TO.P,SW6,1,1*%
%TO.N,Net-(D12-A)*%
X88265000Y-113982500D03*
%TO.P,SW6,2,2*%
%TO.N,Net-(U1-GPIO7{slash}SCL)*%
X81915000Y-116522500D03*
%TD*%
%TO.P,SW4,1,1*%
%TO.N,Net-(D10-A)*%
X69215000Y-94932500D03*
%TO.P,SW4,2,2*%
%TO.N,Net-(U1-GPIO7{slash}SCL)*%
X62865000Y-97472500D03*
%TD*%
%TO.P,SW5,1,1*%
%TO.N,Net-(D11-A)*%
X69215000Y-113982500D03*
%TO.P,SW5,2,2*%
%TO.N,Net-(U1-GPIO7{slash}SCL)*%
X62865000Y-116522500D03*
%TD*%
%TO.P,SW2,1,1*%
%TO.N,Net-(D8-A)*%
X88265000Y-75882500D03*
%TO.P,SW2,2,2*%
%TO.N,Net-(U1-GPIO1{slash}RX)*%
X81915000Y-78422500D03*
%TD*%
D18*
%TO.P,SW7,A,A*%
%TO.N,Net-(U1-GPIO29{slash}ADC3{slash}A3)*%
X97418750Y-78343750D03*
D19*
%TO.P,SW7,B,B*%
%TO.N,Net-(U1-GPIO28{slash}ADC2{slash}A2)*%
X97418750Y-83343750D03*
%TO.P,SW7,C,C*%
%TO.N,GND*%
X97418750Y-80843750D03*
D20*
%TO.P,SW7,MP*%
%TO.N,N/C*%
X104918750Y-75243750D03*
X104918750Y-86443750D03*
D19*
%TO.P,SW7,S1,S1*%
%TO.N,Net-(U1-GPIO0{slash}TX)*%
X111918750Y-83343750D03*
%TO.P,SW7,S2,S2*%
%TO.N,GND*%
X111918750Y-78343750D03*
%TD*%
D21*
%TO.N,Net-(D1-DOUT)*%
X62350000Y-51700000D03*
X61750000Y-53850000D03*
%TO.N,GND*%
X67750000Y-58450000D03*
X69400000Y-58150000D03*
%TO.N,Net-(U1-GPIO29{slash}ADC3{slash}A3)*%
X95800000Y-74950000D03*
X93800000Y-76550000D03*
X79800000Y-62900000D03*
%TO.N,Net-(D12-K)*%
X97850000Y-63350000D03*
X96300000Y-63700000D03*
%TO.N,Net-(D11-K)*%
X96700000Y-61150000D03*
X103500000Y-62250000D03*
%TO.N,Net-(D8-A)*%
X68500000Y-72250000D03*
%TO.N,Net-(U1-GPIO28{slash}ADC2{slash}A2)*%
X80550000Y-62200000D03*
%TO.N,Net-(D10-K)*%
X67850000Y-68700000D03*
X81700000Y-62150000D03*
X83250000Y-62050000D03*
%TO.N,GND*%
X98850000Y-56150000D03*
X105950000Y-61450000D03*
%TO.N,Net-(D9-A)*%
X91300000Y-76700000D03*
X88300000Y-91200000D03*
X98000000Y-61250000D03*
%TO.N,Net-(U1-GPIO27{slash}ADC1{slash}A1)*%
X82950000Y-76300000D03*
%TO.N,GND*%
X67350000Y-52500000D03*
X68000000Y-55350000D03*
X68000000Y-56300000D03*
%TO.N,Net-(D11-K)*%
X67200000Y-70600000D03*
X83150000Y-69200000D03*
%TO.N,Net-(D1-DIN)*%
X69600000Y-59300000D03*
%TO.N,Net-(D10-K)*%
X98950000Y-60450000D03*
X104150000Y-60850000D03*
X107350000Y-60850000D03*
%TO.N,Net-(D13-A)*%
X109700000Y-61100000D03*
%TO.N,Net-(D10-A)*%
X89150000Y-89950000D03*
%TO.N,Net-(D12-A)*%
X100150000Y-72300000D03*
%TO.N,Net-(U1-GPIO0{slash}TX)*%
X94450000Y-83700000D03*
%TO.N,+5V*%
X71000000Y-50600000D03*
X71750000Y-54200000D03*
%TD*%
D22*
%TO.N,Net-(D1-DOUT)*%
X62350000Y-51700000D02*
X62025000Y-51700000D01*
X60800000Y-54800000D02*
X61750000Y-53850000D01*
X60800000Y-55200000D02*
X60800000Y-54800000D01*
X62025000Y-51700000D02*
X60900000Y-50575000D01*
%TO.N,GND*%
X69372500Y-62280000D02*
X69230000Y-62280000D01*
X67750000Y-60300000D02*
X67750000Y-58450000D01*
X69230000Y-62280000D02*
X67500000Y-60550000D01*
X67500000Y-60550000D02*
X67750000Y-60300000D01*
X69400000Y-58150000D02*
X69400000Y-57187500D01*
X69400000Y-57187500D02*
X69372500Y-57160000D01*
X68272500Y-66300000D02*
X67650000Y-66300000D01*
X69372500Y-67400000D02*
X68272500Y-66300000D01*
X67650000Y-66300000D02*
X67650000Y-64002500D01*
X67650000Y-64002500D02*
X69372500Y-62280000D01*
%TO.N,Net-(U1-GPIO29{slash}ADC3{slash}A3)*%
X95450000Y-75300000D02*
X95800000Y-74950000D01*
X78470000Y-59780000D02*
X78470000Y-60420000D01*
X93800000Y-76550000D02*
X94200000Y-76550000D01*
X79800000Y-61750000D02*
X79800000Y-62900000D01*
X79400000Y-61350000D02*
X79800000Y-61750000D01*
X78470000Y-60420000D02*
X79400000Y-61350000D01*
X94200000Y-76550000D02*
X95450000Y-75300000D01*
%TO.N,Net-(D12-K)*%
X93710000Y-64860000D02*
X94870000Y-63700000D01*
X94870000Y-63700000D02*
X96300000Y-63700000D01*
X99650000Y-61100000D02*
X99775000Y-61225000D01*
X99775000Y-61425000D02*
X99775000Y-61225000D01*
X97850000Y-63350000D02*
X99775000Y-61425000D01*
%TO.N,Net-(D11-K)*%
X95530000Y-62320000D02*
X96700000Y-61150000D01*
X93710000Y-62320000D02*
X95530000Y-62320000D01*
X103500000Y-62250000D02*
X103500000Y-61400000D01*
%TO.N,Net-(D8-A)*%
X67750000Y-71500000D02*
X68500000Y-72250000D01*
X59750000Y-62640000D02*
X59750000Y-71500000D01*
X59750000Y-71500000D02*
X67750000Y-71500000D01*
X61250000Y-61140000D02*
X59750000Y-62640000D01*
%TO.N,Net-(U1-GPIO28{slash}ADC2{slash}A2)*%
X78470000Y-58020000D02*
X80200000Y-59750000D01*
X78470000Y-57240000D02*
X78470000Y-58020000D01*
X80200000Y-61850000D02*
X80550000Y-62200000D01*
X80200000Y-59750000D02*
X80200000Y-61850000D01*
%TO.N,Net-(D10-K)*%
X74350000Y-69050000D02*
X68200000Y-69050000D01*
X80200000Y-63650000D02*
X76000000Y-63650000D01*
X93710000Y-59780000D02*
X85520000Y-59780000D01*
X81700000Y-62150000D02*
X80200000Y-63650000D01*
X85520000Y-59780000D02*
X83250000Y-62050000D01*
X76000000Y-63650000D02*
X74350000Y-65300000D01*
X68200000Y-69050000D02*
X67850000Y-68700000D01*
X74350000Y-65300000D02*
X74350000Y-69050000D01*
%TO.N,GND*%
X100150000Y-78343750D02*
X99918750Y-78343750D01*
X106500000Y-65150000D02*
X106500000Y-62350000D01*
X105950000Y-61800000D02*
X105950000Y-61450000D01*
X95160000Y-56150000D02*
X93710000Y-54700000D01*
X100150000Y-78343750D02*
X100150000Y-77150000D01*
X106300000Y-62150000D02*
X105950000Y-61800000D01*
X106500000Y-70800000D02*
X106500000Y-65150000D01*
X100150000Y-77150000D02*
X106500000Y-70800000D01*
X106500000Y-62350000D02*
X106300000Y-62150000D01*
X98850000Y-56150000D02*
X95160000Y-56150000D01*
%TO.N,Net-(D9-A)*%
X96950000Y-62300000D02*
X98000000Y-61250000D01*
X94550000Y-69350000D02*
X96950000Y-69350000D01*
X88300000Y-94897500D02*
X88300000Y-91200000D01*
X93300000Y-70600000D02*
X94550000Y-69350000D01*
X88265000Y-94932500D02*
X88300000Y-94897500D01*
X96950000Y-69350000D02*
X96950000Y-62300000D01*
X91300000Y-76700000D02*
X91300000Y-72600000D01*
X91300000Y-72600000D02*
X93300000Y-70600000D01*
%TO.N,Net-(U1-GPIO27{slash}ADC1{slash}A1)*%
X82450000Y-76300000D02*
X82950000Y-76300000D01*
X79950000Y-56300000D02*
X82450000Y-58800000D01*
X78470000Y-54820000D02*
X79950000Y-56300000D01*
X78470000Y-54700000D02*
X78470000Y-54820000D01*
X82450000Y-58800000D02*
X82450000Y-76300000D01*
%TO.N,GND*%
X67350000Y-52500000D02*
X68912500Y-52500000D01*
X68912500Y-52500000D02*
X69372500Y-52040000D01*
X68000000Y-56300000D02*
X68000000Y-55350000D01*
X69372500Y-57160000D02*
X68860000Y-57160000D01*
X68860000Y-57160000D02*
X68000000Y-56300000D01*
%TO.N,Net-(D11-K)*%
X83150000Y-69200000D02*
X86830000Y-69200000D01*
X86830000Y-69200000D02*
X93710000Y-62320000D01*
X63090000Y-70600000D02*
X67200000Y-70600000D01*
X61250000Y-68760000D02*
X63090000Y-70600000D01*
%TO.N,Net-(D1-DIN)*%
X67250000Y-56950000D02*
X69600000Y-59300000D01*
X64300000Y-56950000D02*
X67250000Y-56950000D01*
%TO.N,Net-(D10-K)*%
X107350000Y-60850000D02*
X104150000Y-60850000D01*
X94380000Y-60450000D02*
X93710000Y-59780000D01*
X98950000Y-60450000D02*
X94380000Y-60450000D01*
X108400000Y-61900000D02*
X107350000Y-60850000D01*
X108400000Y-62750000D02*
X108400000Y-61900000D01*
%TO.N,Net-(D11-K)*%
X104850000Y-62750000D02*
X103500000Y-61400000D01*
X103500000Y-61400000D02*
X103500000Y-52740000D01*
X103500000Y-52740000D02*
X104850000Y-51390000D01*
%TO.N,Net-(D12-K)*%
X101450000Y-51390000D02*
X99650000Y-53190000D01*
X99775000Y-61225000D02*
X101300000Y-62750000D01*
X99650000Y-53190000D02*
X99650000Y-61100000D01*
%TO.N,Net-(D13-A)*%
X113950000Y-65350000D02*
X109700000Y-61100000D01*
X107315000Y-90735000D02*
X113200000Y-84850000D01*
X113950000Y-83900000D02*
X113950000Y-65350000D01*
X107315000Y-94932500D02*
X107315000Y-90735000D01*
X113200000Y-84850000D02*
X113950000Y-84100000D01*
X113950000Y-84100000D02*
X113950000Y-83900000D01*
%TO.N,Net-(D10-A)*%
X86050000Y-90300000D02*
X88800000Y-90300000D01*
X83400000Y-98150000D02*
X86050000Y-95500000D01*
X81450000Y-99000000D02*
X82550000Y-99000000D01*
X77382500Y-94932500D02*
X81450000Y-99000000D01*
X88800000Y-90300000D02*
X89150000Y-89950000D01*
X86050000Y-95500000D02*
X86050000Y-90300000D01*
X69215000Y-94932500D02*
X77382500Y-94932500D01*
X82550000Y-99000000D02*
X83400000Y-98150000D01*
%TO.N,Net-(D12-A)*%
X97500000Y-90700000D02*
X93700000Y-86900000D01*
X99500000Y-72500000D02*
X99950000Y-72500000D01*
X93700000Y-86900000D02*
X93700000Y-81650000D01*
X88265000Y-113982500D02*
X88265000Y-99935000D01*
X88265000Y-99935000D02*
X97500000Y-90700000D01*
X93700000Y-81650000D02*
X93700000Y-78300000D01*
X99950000Y-72500000D02*
X100150000Y-72300000D01*
X93700000Y-78300000D02*
X99500000Y-72500000D01*
%TO.N,Net-(U1-GPIO0{slash}TX)*%
X111918750Y-83343750D02*
X100956250Y-83343750D01*
X98350000Y-85950000D02*
X96700000Y-85950000D01*
X100956250Y-83343750D02*
X98350000Y-85950000D01*
X96700000Y-85950000D02*
X94450000Y-83700000D01*
%TO.N,Net-(D14-A)*%
X114350000Y-106947500D02*
X114350000Y-60150000D01*
X107315000Y-113982500D02*
X114350000Y-106947500D01*
X114350000Y-60150000D02*
X105990000Y-60150000D01*
X105990000Y-60150000D02*
X104850000Y-59010000D01*
%TO.N,+5V*%
X72872500Y-50290000D02*
X91840000Y-50290000D01*
X91840000Y-50290000D02*
X93710000Y-52160000D01*
X72112500Y-54650000D02*
X71900000Y-54650000D01*
X72872500Y-50290000D02*
X71310000Y-50290000D01*
X71310000Y-50290000D02*
X71000000Y-50600000D01*
X71750000Y-54200000D02*
X71750000Y-54500000D01*
X71750000Y-54500000D02*
X71900000Y-54650000D01*
X74200000Y-64322500D02*
X74200000Y-61600000D01*
X74200000Y-61600000D02*
X73942500Y-61600000D01*
X72872500Y-65650000D02*
X74200000Y-64322500D01*
X73942500Y-61600000D02*
X72872500Y-60530000D01*
%TO.N,Net-(D5-DOUT)*%
X70692500Y-61850000D02*
X71050000Y-61850000D01*
X69372500Y-60530000D02*
X70692500Y-61850000D01*
X71050000Y-61850000D02*
X71050000Y-65577500D01*
X71050000Y-65577500D02*
X72872500Y-67400000D01*
%TO.N,Net-(D4-DOUT)*%
X70500000Y-59907500D02*
X70500000Y-56400000D01*
X72872500Y-62280000D02*
X70500000Y-59907500D01*
X70500000Y-56400000D02*
X70362500Y-56400000D01*
X70362500Y-56400000D02*
X69372500Y-55410000D01*
%TO.N,+5V*%
X71650000Y-59307500D02*
X71650000Y-56150000D01*
X71650000Y-56150000D02*
X72132500Y-56150000D01*
X72872500Y-60530000D02*
X71650000Y-59307500D01*
X72132500Y-56150000D02*
X72872500Y-55410000D01*
%TO.N,GND*%
X59650000Y-50000000D02*
X59650000Y-49850000D01*
X59600000Y-50050000D02*
X59650000Y-50000000D01*
X60800000Y-56950000D02*
X59600000Y-55750000D01*
X59600000Y-55750000D02*
X59600000Y-50050000D01*
X59650000Y-49850000D02*
X63675000Y-49850000D01*
X63675000Y-49850000D02*
X64400000Y-50575000D01*
%TO.N,+5V*%
X72872500Y-55410000D02*
X72112500Y-54650000D01*
X71900000Y-54650000D02*
X64850000Y-54650000D01*
X64850000Y-54650000D02*
X64300000Y-55200000D01*
%TO.N,Net-(D3-DOUT)*%
X69372500Y-50290000D02*
X70332500Y-51250000D01*
X74100000Y-55932500D02*
X72872500Y-57160000D01*
X70332500Y-51250000D02*
X73950000Y-51250000D01*
X73950000Y-51250000D02*
X74100000Y-51400000D01*
X74100000Y-51400000D02*
X74100000Y-55932500D01*
%TO.N,Net-(D2-DOUT)*%
X65325000Y-52325000D02*
X66100000Y-53100000D01*
X64400000Y-52325000D02*
X65325000Y-52325000D01*
X66100000Y-53100000D02*
X71812500Y-53100000D01*
X71812500Y-53100000D02*
X72872500Y-52040000D01*
%TO.N,+5V*%
X60900000Y-52325000D02*
X61425000Y-52325000D01*
X61425000Y-52325000D02*
X64300000Y-55200000D01*
%TO.N,GND*%
X65865000Y-52040000D02*
X69372500Y-52040000D01*
X64400000Y-50575000D02*
X65865000Y-52040000D01*
%TO.N,Net-(D11-A)*%
X69215000Y-113982500D02*
X69215000Y-113185000D01*
X69215000Y-113185000D02*
X85750000Y-96650000D01*
X92700000Y-72450000D02*
X93500000Y-71650000D01*
X85750000Y-96650000D02*
X90250000Y-96650000D01*
X90250000Y-96650000D02*
X90250000Y-83700000D01*
X90250000Y-83700000D02*
X92600000Y-81350000D01*
X93500000Y-71650000D02*
X103570000Y-71650000D01*
X92600000Y-81350000D02*
X92600000Y-74850000D01*
X92600000Y-74850000D02*
X92700000Y-74750000D01*
X92700000Y-74750000D02*
X92700000Y-72450000D01*
X103570000Y-71650000D02*
X104850000Y-70370000D01*
%TO.N,GND*%
X111918750Y-78343750D02*
X100150000Y-78343750D01*
X99918750Y-78343750D02*
X97418750Y-80843750D01*
%TO.N,Net-(U1-GPIO7{slash}SCL)*%
X75550000Y-71650000D02*
X75550000Y-66150000D01*
X69600000Y-77600000D02*
X75550000Y-71650000D01*
X58150000Y-80150000D02*
X58150000Y-79450000D01*
X62865000Y-97472500D02*
X62865000Y-84865000D01*
X62865000Y-84865000D02*
X58150000Y-80150000D01*
X63600000Y-74000000D02*
X67200000Y-77600000D01*
X58150000Y-79450000D02*
X63600000Y-74000000D01*
X67200000Y-77600000D02*
X69600000Y-77600000D01*
X76840000Y-64860000D02*
X78470000Y-64860000D01*
X75550000Y-66150000D02*
X76840000Y-64860000D01*
%TO.N,Net-(D7-A)*%
X69215000Y-71065000D02*
X67000000Y-68850000D01*
X69215000Y-75882500D02*
X69215000Y-71065000D01*
X67000000Y-68850000D02*
X67000000Y-63390000D01*
X67000000Y-63390000D02*
X64750000Y-61140000D01*
%TO.N,Net-(U1-GPIO1{slash}RX)*%
X81915000Y-78422500D02*
X82687500Y-78422500D01*
X82687500Y-78422500D02*
X93710000Y-67400000D01*
X81915000Y-78422500D02*
X81915000Y-97472500D01*
X62865000Y-78422500D02*
X81915000Y-78422500D01*
%TO.N,Net-(U1-GPIO27{slash}ADC1{slash}A1)*%
X100965000Y-116522500D02*
X100965000Y-97472500D01*
%TO.N,Net-(U1-GPIO7{slash}SCL)*%
X62865000Y-116522500D02*
X62865000Y-97472500D01*
X62877500Y-116522500D02*
X62900000Y-116500000D01*
X62865000Y-116522500D02*
X62877500Y-116522500D01*
X62900000Y-116500000D02*
X81892500Y-116500000D01*
X81892500Y-116500000D02*
X81915000Y-116522500D01*
%TD*%
M02*
