%TF.GenerationSoftware,KiCad,Pcbnew,9.0.2*%
%TF.CreationDate,2025-08-01T00:08:25-07:00*%
%TF.ProjectId,macropad,6d616372-6f70-4616-942e-6b696361645f,rev?*%
%TF.SameCoordinates,Original*%
%TF.FileFunction,Legend,Top*%
%TF.FilePolarity,Positive*%
%FSLAX46Y46*%
G04 Gerber Fmt 4.6, Leading zero omitted, Abs format (unit mm)*
G04 Created by KiCad (PCBNEW 9.0.2) date 2025-08-01 00:08:25*
%MOMM*%
%LPD*%
G01*
G04 APERTURE LIST*
%ADD10C,0.150000*%
%ADD11C,0.101600*%
%ADD12C,0.120000*%
%ADD13C,0.127000*%
%ADD14C,0.100000*%
%ADD15C,0.504000*%
G04 APERTURE END LIST*
D10*
X70411905Y-53404819D02*
X70411905Y-52404819D01*
X70411905Y-52404819D02*
X70650000Y-52404819D01*
X70650000Y-52404819D02*
X70792857Y-52452438D01*
X70792857Y-52452438D02*
X70888095Y-52547676D01*
X70888095Y-52547676D02*
X70935714Y-52642914D01*
X70935714Y-52642914D02*
X70983333Y-52833390D01*
X70983333Y-52833390D02*
X70983333Y-52976247D01*
X70983333Y-52976247D02*
X70935714Y-53166723D01*
X70935714Y-53166723D02*
X70888095Y-53261961D01*
X70888095Y-53261961D02*
X70792857Y-53357200D01*
X70792857Y-53357200D02*
X70650000Y-53404819D01*
X70650000Y-53404819D02*
X70411905Y-53404819D01*
X71316667Y-52404819D02*
X71935714Y-52404819D01*
X71935714Y-52404819D02*
X71602381Y-52785771D01*
X71602381Y-52785771D02*
X71745238Y-52785771D01*
X71745238Y-52785771D02*
X71840476Y-52833390D01*
X71840476Y-52833390D02*
X71888095Y-52881009D01*
X71888095Y-52881009D02*
X71935714Y-52976247D01*
X71935714Y-52976247D02*
X71935714Y-53214342D01*
X71935714Y-53214342D02*
X71888095Y-53309580D01*
X71888095Y-53309580D02*
X71840476Y-53357200D01*
X71840476Y-53357200D02*
X71745238Y-53404819D01*
X71745238Y-53404819D02*
X71459524Y-53404819D01*
X71459524Y-53404819D02*
X71364286Y-53357200D01*
X71364286Y-53357200D02*
X71316667Y-53309580D01*
X68151071Y-50652295D02*
X67693928Y-50652295D01*
X67922500Y-50652295D02*
X67922500Y-49852295D01*
X67922500Y-49852295D02*
X67846309Y-49966580D01*
X67846309Y-49966580D02*
X67770119Y-50042771D01*
X67770119Y-50042771D02*
X67693928Y-50080866D01*
X61911905Y-54654819D02*
X61911905Y-53654819D01*
X61911905Y-53654819D02*
X62150000Y-53654819D01*
X62150000Y-53654819D02*
X62292857Y-53702438D01*
X62292857Y-53702438D02*
X62388095Y-53797676D01*
X62388095Y-53797676D02*
X62435714Y-53892914D01*
X62435714Y-53892914D02*
X62483333Y-54083390D01*
X62483333Y-54083390D02*
X62483333Y-54226247D01*
X62483333Y-54226247D02*
X62435714Y-54416723D01*
X62435714Y-54416723D02*
X62388095Y-54511961D01*
X62388095Y-54511961D02*
X62292857Y-54607200D01*
X62292857Y-54607200D02*
X62150000Y-54654819D01*
X62150000Y-54654819D02*
X61911905Y-54654819D01*
X62864286Y-53750057D02*
X62911905Y-53702438D01*
X62911905Y-53702438D02*
X63007143Y-53654819D01*
X63007143Y-53654819D02*
X63245238Y-53654819D01*
X63245238Y-53654819D02*
X63340476Y-53702438D01*
X63340476Y-53702438D02*
X63388095Y-53750057D01*
X63388095Y-53750057D02*
X63435714Y-53845295D01*
X63435714Y-53845295D02*
X63435714Y-53940533D01*
X63435714Y-53940533D02*
X63388095Y-54083390D01*
X63388095Y-54083390D02*
X62816667Y-54654819D01*
X62816667Y-54654819D02*
X63435714Y-54654819D01*
X65621428Y-51962704D02*
X66078571Y-51962704D01*
X65849999Y-51962704D02*
X65849999Y-52762704D01*
X65849999Y-52762704D02*
X65926190Y-52648419D01*
X65926190Y-52648419D02*
X66002380Y-52572228D01*
X66002380Y-52572228D02*
X66078571Y-52534133D01*
X70384405Y-53989819D02*
X70384405Y-52989819D01*
X70384405Y-52989819D02*
X70622500Y-52989819D01*
X70622500Y-52989819D02*
X70765357Y-53037438D01*
X70765357Y-53037438D02*
X70860595Y-53132676D01*
X70860595Y-53132676D02*
X70908214Y-53227914D01*
X70908214Y-53227914D02*
X70955833Y-53418390D01*
X70955833Y-53418390D02*
X70955833Y-53561247D01*
X70955833Y-53561247D02*
X70908214Y-53751723D01*
X70908214Y-53751723D02*
X70860595Y-53846961D01*
X70860595Y-53846961D02*
X70765357Y-53942200D01*
X70765357Y-53942200D02*
X70622500Y-53989819D01*
X70622500Y-53989819D02*
X70384405Y-53989819D01*
X71812976Y-53323152D02*
X71812976Y-53989819D01*
X71574881Y-52942200D02*
X71336786Y-53656485D01*
X71336786Y-53656485D02*
X71955833Y-53656485D01*
X68151071Y-55772295D02*
X67693928Y-55772295D01*
X67922500Y-55772295D02*
X67922500Y-54972295D01*
X67922500Y-54972295D02*
X67846309Y-55086580D01*
X67846309Y-55086580D02*
X67770119Y-55162771D01*
X67770119Y-55162771D02*
X67693928Y-55200866D01*
X70384405Y-59109819D02*
X70384405Y-58109819D01*
X70384405Y-58109819D02*
X70622500Y-58109819D01*
X70622500Y-58109819D02*
X70765357Y-58157438D01*
X70765357Y-58157438D02*
X70860595Y-58252676D01*
X70860595Y-58252676D02*
X70908214Y-58347914D01*
X70908214Y-58347914D02*
X70955833Y-58538390D01*
X70955833Y-58538390D02*
X70955833Y-58681247D01*
X70955833Y-58681247D02*
X70908214Y-58871723D01*
X70908214Y-58871723D02*
X70860595Y-58966961D01*
X70860595Y-58966961D02*
X70765357Y-59062200D01*
X70765357Y-59062200D02*
X70622500Y-59109819D01*
X70622500Y-59109819D02*
X70384405Y-59109819D01*
X71860595Y-58109819D02*
X71384405Y-58109819D01*
X71384405Y-58109819D02*
X71336786Y-58586009D01*
X71336786Y-58586009D02*
X71384405Y-58538390D01*
X71384405Y-58538390D02*
X71479643Y-58490771D01*
X71479643Y-58490771D02*
X71717738Y-58490771D01*
X71717738Y-58490771D02*
X71812976Y-58538390D01*
X71812976Y-58538390D02*
X71860595Y-58586009D01*
X71860595Y-58586009D02*
X71908214Y-58681247D01*
X71908214Y-58681247D02*
X71908214Y-58919342D01*
X71908214Y-58919342D02*
X71860595Y-59014580D01*
X71860595Y-59014580D02*
X71812976Y-59062200D01*
X71812976Y-59062200D02*
X71717738Y-59109819D01*
X71717738Y-59109819D02*
X71479643Y-59109819D01*
X71479643Y-59109819D02*
X71384405Y-59062200D01*
X71384405Y-59062200D02*
X71336786Y-59014580D01*
X68151071Y-60892295D02*
X67693928Y-60892295D01*
X67922500Y-60892295D02*
X67922500Y-60092295D01*
X67922500Y-60092295D02*
X67846309Y-60206580D01*
X67846309Y-60206580D02*
X67770119Y-60282771D01*
X67770119Y-60282771D02*
X67693928Y-60320866D01*
X70384405Y-64229819D02*
X70384405Y-63229819D01*
X70384405Y-63229819D02*
X70622500Y-63229819D01*
X70622500Y-63229819D02*
X70765357Y-63277438D01*
X70765357Y-63277438D02*
X70860595Y-63372676D01*
X70860595Y-63372676D02*
X70908214Y-63467914D01*
X70908214Y-63467914D02*
X70955833Y-63658390D01*
X70955833Y-63658390D02*
X70955833Y-63801247D01*
X70955833Y-63801247D02*
X70908214Y-63991723D01*
X70908214Y-63991723D02*
X70860595Y-64086961D01*
X70860595Y-64086961D02*
X70765357Y-64182200D01*
X70765357Y-64182200D02*
X70622500Y-64229819D01*
X70622500Y-64229819D02*
X70384405Y-64229819D01*
X71812976Y-63229819D02*
X71622500Y-63229819D01*
X71622500Y-63229819D02*
X71527262Y-63277438D01*
X71527262Y-63277438D02*
X71479643Y-63325057D01*
X71479643Y-63325057D02*
X71384405Y-63467914D01*
X71384405Y-63467914D02*
X71336786Y-63658390D01*
X71336786Y-63658390D02*
X71336786Y-64039342D01*
X71336786Y-64039342D02*
X71384405Y-64134580D01*
X71384405Y-64134580D02*
X71432024Y-64182200D01*
X71432024Y-64182200D02*
X71527262Y-64229819D01*
X71527262Y-64229819D02*
X71717738Y-64229819D01*
X71717738Y-64229819D02*
X71812976Y-64182200D01*
X71812976Y-64182200D02*
X71860595Y-64134580D01*
X71860595Y-64134580D02*
X71908214Y-64039342D01*
X71908214Y-64039342D02*
X71908214Y-63801247D01*
X71908214Y-63801247D02*
X71860595Y-63706009D01*
X71860595Y-63706009D02*
X71812976Y-63658390D01*
X71812976Y-63658390D02*
X71717738Y-63610771D01*
X71717738Y-63610771D02*
X71527262Y-63610771D01*
X71527262Y-63610771D02*
X71432024Y-63658390D01*
X71432024Y-63658390D02*
X71384405Y-63706009D01*
X71384405Y-63706009D02*
X71336786Y-63801247D01*
X68151071Y-66012295D02*
X67693928Y-66012295D01*
X67922500Y-66012295D02*
X67922500Y-65212295D01*
X67922500Y-65212295D02*
X67846309Y-65326580D01*
X67846309Y-65326580D02*
X67770119Y-65402771D01*
X67770119Y-65402771D02*
X67693928Y-65440866D01*
X61811905Y-53779819D02*
X61811905Y-52779819D01*
X61811905Y-52779819D02*
X62050000Y-52779819D01*
X62050000Y-52779819D02*
X62192857Y-52827438D01*
X62192857Y-52827438D02*
X62288095Y-52922676D01*
X62288095Y-52922676D02*
X62335714Y-53017914D01*
X62335714Y-53017914D02*
X62383333Y-53208390D01*
X62383333Y-53208390D02*
X62383333Y-53351247D01*
X62383333Y-53351247D02*
X62335714Y-53541723D01*
X62335714Y-53541723D02*
X62288095Y-53636961D01*
X62288095Y-53636961D02*
X62192857Y-53732200D01*
X62192857Y-53732200D02*
X62050000Y-53779819D01*
X62050000Y-53779819D02*
X61811905Y-53779819D01*
X63335714Y-53779819D02*
X62764286Y-53779819D01*
X63050000Y-53779819D02*
X63050000Y-52779819D01*
X63050000Y-52779819D02*
X62954762Y-52922676D01*
X62954762Y-52922676D02*
X62859524Y-53017914D01*
X62859524Y-53017914D02*
X62764286Y-53065533D01*
X59578571Y-55562295D02*
X59121428Y-55562295D01*
X59350000Y-55562295D02*
X59350000Y-54762295D01*
X59350000Y-54762295D02*
X59273809Y-54876580D01*
X59273809Y-54876580D02*
X59197619Y-54952771D01*
X59197619Y-54952771D02*
X59121428Y-54990866D01*
X110974819Y-56414285D02*
X109974819Y-56414285D01*
X109974819Y-56414285D02*
X109974819Y-56176190D01*
X109974819Y-56176190D02*
X110022438Y-56033333D01*
X110022438Y-56033333D02*
X110117676Y-55938095D01*
X110117676Y-55938095D02*
X110212914Y-55890476D01*
X110212914Y-55890476D02*
X110403390Y-55842857D01*
X110403390Y-55842857D02*
X110546247Y-55842857D01*
X110546247Y-55842857D02*
X110736723Y-55890476D01*
X110736723Y-55890476D02*
X110831961Y-55938095D01*
X110831961Y-55938095D02*
X110927200Y-56033333D01*
X110927200Y-56033333D02*
X110974819Y-56176190D01*
X110974819Y-56176190D02*
X110974819Y-56414285D01*
X110974819Y-54890476D02*
X110974819Y-55461904D01*
X110974819Y-55176190D02*
X109974819Y-55176190D01*
X109974819Y-55176190D02*
X110117676Y-55271428D01*
X110117676Y-55271428D02*
X110212914Y-55366666D01*
X110212914Y-55366666D02*
X110260533Y-55461904D01*
X109974819Y-54557142D02*
X109974819Y-53938095D01*
X109974819Y-53938095D02*
X110355771Y-54271428D01*
X110355771Y-54271428D02*
X110355771Y-54128571D01*
X110355771Y-54128571D02*
X110403390Y-54033333D01*
X110403390Y-54033333D02*
X110451009Y-53985714D01*
X110451009Y-53985714D02*
X110546247Y-53938095D01*
X110546247Y-53938095D02*
X110784342Y-53938095D01*
X110784342Y-53938095D02*
X110879580Y-53985714D01*
X110879580Y-53985714D02*
X110927200Y-54033333D01*
X110927200Y-54033333D02*
X110974819Y-54128571D01*
X110974819Y-54128571D02*
X110974819Y-54414285D01*
X110974819Y-54414285D02*
X110927200Y-54509523D01*
X110927200Y-54509523D02*
X110879580Y-54557142D01*
X110654819Y-51651904D02*
X109654819Y-51651904D01*
X110654819Y-51080476D02*
X110083390Y-51509047D01*
X109654819Y-51080476D02*
X110226247Y-51651904D01*
X107424819Y-56414285D02*
X106424819Y-56414285D01*
X106424819Y-56414285D02*
X106424819Y-56176190D01*
X106424819Y-56176190D02*
X106472438Y-56033333D01*
X106472438Y-56033333D02*
X106567676Y-55938095D01*
X106567676Y-55938095D02*
X106662914Y-55890476D01*
X106662914Y-55890476D02*
X106853390Y-55842857D01*
X106853390Y-55842857D02*
X106996247Y-55842857D01*
X106996247Y-55842857D02*
X107186723Y-55890476D01*
X107186723Y-55890476D02*
X107281961Y-55938095D01*
X107281961Y-55938095D02*
X107377200Y-56033333D01*
X107377200Y-56033333D02*
X107424819Y-56176190D01*
X107424819Y-56176190D02*
X107424819Y-56414285D01*
X107424819Y-54890476D02*
X107424819Y-55461904D01*
X107424819Y-55176190D02*
X106424819Y-55176190D01*
X106424819Y-55176190D02*
X106567676Y-55271428D01*
X106567676Y-55271428D02*
X106662914Y-55366666D01*
X106662914Y-55366666D02*
X106710533Y-55461904D01*
X106758152Y-54033333D02*
X107424819Y-54033333D01*
X106377200Y-54271428D02*
X107091485Y-54509523D01*
X107091485Y-54509523D02*
X107091485Y-53890476D01*
X107104819Y-51651904D02*
X106104819Y-51651904D01*
X107104819Y-51080476D02*
X106533390Y-51509047D01*
X106104819Y-51080476D02*
X106676247Y-51651904D01*
X103874819Y-67774285D02*
X102874819Y-67774285D01*
X102874819Y-67774285D02*
X102874819Y-67536190D01*
X102874819Y-67536190D02*
X102922438Y-67393333D01*
X102922438Y-67393333D02*
X103017676Y-67298095D01*
X103017676Y-67298095D02*
X103112914Y-67250476D01*
X103112914Y-67250476D02*
X103303390Y-67202857D01*
X103303390Y-67202857D02*
X103446247Y-67202857D01*
X103446247Y-67202857D02*
X103636723Y-67250476D01*
X103636723Y-67250476D02*
X103731961Y-67298095D01*
X103731961Y-67298095D02*
X103827200Y-67393333D01*
X103827200Y-67393333D02*
X103874819Y-67536190D01*
X103874819Y-67536190D02*
X103874819Y-67774285D01*
X103874819Y-66250476D02*
X103874819Y-66821904D01*
X103874819Y-66536190D02*
X102874819Y-66536190D01*
X102874819Y-66536190D02*
X103017676Y-66631428D01*
X103017676Y-66631428D02*
X103112914Y-66726666D01*
X103112914Y-66726666D02*
X103160533Y-66821904D01*
X102970057Y-65869523D02*
X102922438Y-65821904D01*
X102922438Y-65821904D02*
X102874819Y-65726666D01*
X102874819Y-65726666D02*
X102874819Y-65488571D01*
X102874819Y-65488571D02*
X102922438Y-65393333D01*
X102922438Y-65393333D02*
X102970057Y-65345714D01*
X102970057Y-65345714D02*
X103065295Y-65298095D01*
X103065295Y-65298095D02*
X103160533Y-65298095D01*
X103160533Y-65298095D02*
X103303390Y-65345714D01*
X103303390Y-65345714D02*
X103874819Y-65917142D01*
X103874819Y-65917142D02*
X103874819Y-65298095D01*
X103554819Y-63011904D02*
X102554819Y-63011904D01*
X103554819Y-62440476D02*
X102983390Y-62869047D01*
X102554819Y-62440476D02*
X103126247Y-63011904D01*
X63084819Y-65688094D02*
X62084819Y-65688094D01*
X62084819Y-65688094D02*
X62084819Y-65449999D01*
X62084819Y-65449999D02*
X62132438Y-65307142D01*
X62132438Y-65307142D02*
X62227676Y-65211904D01*
X62227676Y-65211904D02*
X62322914Y-65164285D01*
X62322914Y-65164285D02*
X62513390Y-65116666D01*
X62513390Y-65116666D02*
X62656247Y-65116666D01*
X62656247Y-65116666D02*
X62846723Y-65164285D01*
X62846723Y-65164285D02*
X62941961Y-65211904D01*
X62941961Y-65211904D02*
X63037200Y-65307142D01*
X63037200Y-65307142D02*
X63084819Y-65449999D01*
X63084819Y-65449999D02*
X63084819Y-65688094D01*
X62084819Y-64783332D02*
X62084819Y-64116666D01*
X62084819Y-64116666D02*
X63084819Y-64545237D01*
X63404819Y-69021904D02*
X62404819Y-69021904D01*
X63404819Y-68450476D02*
X62833390Y-68879047D01*
X62404819Y-68450476D02*
X62976247Y-69021904D01*
X104024819Y-55938094D02*
X103024819Y-55938094D01*
X103024819Y-55938094D02*
X103024819Y-55699999D01*
X103024819Y-55699999D02*
X103072438Y-55557142D01*
X103072438Y-55557142D02*
X103167676Y-55461904D01*
X103167676Y-55461904D02*
X103262914Y-55414285D01*
X103262914Y-55414285D02*
X103453390Y-55366666D01*
X103453390Y-55366666D02*
X103596247Y-55366666D01*
X103596247Y-55366666D02*
X103786723Y-55414285D01*
X103786723Y-55414285D02*
X103881961Y-55461904D01*
X103881961Y-55461904D02*
X103977200Y-55557142D01*
X103977200Y-55557142D02*
X104024819Y-55699999D01*
X104024819Y-55699999D02*
X104024819Y-55938094D01*
X104024819Y-54890475D02*
X104024819Y-54699999D01*
X104024819Y-54699999D02*
X103977200Y-54604761D01*
X103977200Y-54604761D02*
X103929580Y-54557142D01*
X103929580Y-54557142D02*
X103786723Y-54461904D01*
X103786723Y-54461904D02*
X103596247Y-54414285D01*
X103596247Y-54414285D02*
X103215295Y-54414285D01*
X103215295Y-54414285D02*
X103120057Y-54461904D01*
X103120057Y-54461904D02*
X103072438Y-54509523D01*
X103072438Y-54509523D02*
X103024819Y-54604761D01*
X103024819Y-54604761D02*
X103024819Y-54795237D01*
X103024819Y-54795237D02*
X103072438Y-54890475D01*
X103072438Y-54890475D02*
X103120057Y-54938094D01*
X103120057Y-54938094D02*
X103215295Y-54985713D01*
X103215295Y-54985713D02*
X103453390Y-54985713D01*
X103453390Y-54985713D02*
X103548628Y-54938094D01*
X103548628Y-54938094D02*
X103596247Y-54890475D01*
X103596247Y-54890475D02*
X103643866Y-54795237D01*
X103643866Y-54795237D02*
X103643866Y-54604761D01*
X103643866Y-54604761D02*
X103596247Y-54509523D01*
X103596247Y-54509523D02*
X103548628Y-54461904D01*
X103548628Y-54461904D02*
X103453390Y-54414285D01*
X103704819Y-51651904D02*
X102704819Y-51651904D01*
X103704819Y-51080476D02*
X103133390Y-51509047D01*
X102704819Y-51080476D02*
X103276247Y-51651904D01*
X100474819Y-56414285D02*
X99474819Y-56414285D01*
X99474819Y-56414285D02*
X99474819Y-56176190D01*
X99474819Y-56176190D02*
X99522438Y-56033333D01*
X99522438Y-56033333D02*
X99617676Y-55938095D01*
X99617676Y-55938095D02*
X99712914Y-55890476D01*
X99712914Y-55890476D02*
X99903390Y-55842857D01*
X99903390Y-55842857D02*
X100046247Y-55842857D01*
X100046247Y-55842857D02*
X100236723Y-55890476D01*
X100236723Y-55890476D02*
X100331961Y-55938095D01*
X100331961Y-55938095D02*
X100427200Y-56033333D01*
X100427200Y-56033333D02*
X100474819Y-56176190D01*
X100474819Y-56176190D02*
X100474819Y-56414285D01*
X100474819Y-54890476D02*
X100474819Y-55461904D01*
X100474819Y-55176190D02*
X99474819Y-55176190D01*
X99474819Y-55176190D02*
X99617676Y-55271428D01*
X99617676Y-55271428D02*
X99712914Y-55366666D01*
X99712914Y-55366666D02*
X99760533Y-55461904D01*
X99474819Y-54271428D02*
X99474819Y-54176190D01*
X99474819Y-54176190D02*
X99522438Y-54080952D01*
X99522438Y-54080952D02*
X99570057Y-54033333D01*
X99570057Y-54033333D02*
X99665295Y-53985714D01*
X99665295Y-53985714D02*
X99855771Y-53938095D01*
X99855771Y-53938095D02*
X100093866Y-53938095D01*
X100093866Y-53938095D02*
X100284342Y-53985714D01*
X100284342Y-53985714D02*
X100379580Y-54033333D01*
X100379580Y-54033333D02*
X100427200Y-54080952D01*
X100427200Y-54080952D02*
X100474819Y-54176190D01*
X100474819Y-54176190D02*
X100474819Y-54271428D01*
X100474819Y-54271428D02*
X100427200Y-54366666D01*
X100427200Y-54366666D02*
X100379580Y-54414285D01*
X100379580Y-54414285D02*
X100284342Y-54461904D01*
X100284342Y-54461904D02*
X100093866Y-54509523D01*
X100093866Y-54509523D02*
X99855771Y-54509523D01*
X99855771Y-54509523D02*
X99665295Y-54461904D01*
X99665295Y-54461904D02*
X99570057Y-54414285D01*
X99570057Y-54414285D02*
X99522438Y-54366666D01*
X99522438Y-54366666D02*
X99474819Y-54271428D01*
X100154819Y-51651904D02*
X99154819Y-51651904D01*
X100154819Y-51080476D02*
X99583390Y-51509047D01*
X99154819Y-51080476D02*
X99726247Y-51651904D01*
X59584819Y-65688094D02*
X58584819Y-65688094D01*
X58584819Y-65688094D02*
X58584819Y-65449999D01*
X58584819Y-65449999D02*
X58632438Y-65307142D01*
X58632438Y-65307142D02*
X58727676Y-65211904D01*
X58727676Y-65211904D02*
X58822914Y-65164285D01*
X58822914Y-65164285D02*
X59013390Y-65116666D01*
X59013390Y-65116666D02*
X59156247Y-65116666D01*
X59156247Y-65116666D02*
X59346723Y-65164285D01*
X59346723Y-65164285D02*
X59441961Y-65211904D01*
X59441961Y-65211904D02*
X59537200Y-65307142D01*
X59537200Y-65307142D02*
X59584819Y-65449999D01*
X59584819Y-65449999D02*
X59584819Y-65688094D01*
X59013390Y-64545237D02*
X58965771Y-64640475D01*
X58965771Y-64640475D02*
X58918152Y-64688094D01*
X58918152Y-64688094D02*
X58822914Y-64735713D01*
X58822914Y-64735713D02*
X58775295Y-64735713D01*
X58775295Y-64735713D02*
X58680057Y-64688094D01*
X58680057Y-64688094D02*
X58632438Y-64640475D01*
X58632438Y-64640475D02*
X58584819Y-64545237D01*
X58584819Y-64545237D02*
X58584819Y-64354761D01*
X58584819Y-64354761D02*
X58632438Y-64259523D01*
X58632438Y-64259523D02*
X58680057Y-64211904D01*
X58680057Y-64211904D02*
X58775295Y-64164285D01*
X58775295Y-64164285D02*
X58822914Y-64164285D01*
X58822914Y-64164285D02*
X58918152Y-64211904D01*
X58918152Y-64211904D02*
X58965771Y-64259523D01*
X58965771Y-64259523D02*
X59013390Y-64354761D01*
X59013390Y-64354761D02*
X59013390Y-64545237D01*
X59013390Y-64545237D02*
X59061009Y-64640475D01*
X59061009Y-64640475D02*
X59108628Y-64688094D01*
X59108628Y-64688094D02*
X59203866Y-64735713D01*
X59203866Y-64735713D02*
X59394342Y-64735713D01*
X59394342Y-64735713D02*
X59489580Y-64688094D01*
X59489580Y-64688094D02*
X59537200Y-64640475D01*
X59537200Y-64640475D02*
X59584819Y-64545237D01*
X59584819Y-64545237D02*
X59584819Y-64354761D01*
X59584819Y-64354761D02*
X59537200Y-64259523D01*
X59537200Y-64259523D02*
X59489580Y-64211904D01*
X59489580Y-64211904D02*
X59394342Y-64164285D01*
X59394342Y-64164285D02*
X59203866Y-64164285D01*
X59203866Y-64164285D02*
X59108628Y-64211904D01*
X59108628Y-64211904D02*
X59061009Y-64259523D01*
X59061009Y-64259523D02*
X59013390Y-64354761D01*
X59904819Y-69021904D02*
X58904819Y-69021904D01*
X59904819Y-68450476D02*
X59333390Y-68879047D01*
X58904819Y-68450476D02*
X59476247Y-69021904D01*
X107424819Y-67774285D02*
X106424819Y-67774285D01*
X106424819Y-67774285D02*
X106424819Y-67536190D01*
X106424819Y-67536190D02*
X106472438Y-67393333D01*
X106472438Y-67393333D02*
X106567676Y-67298095D01*
X106567676Y-67298095D02*
X106662914Y-67250476D01*
X106662914Y-67250476D02*
X106853390Y-67202857D01*
X106853390Y-67202857D02*
X106996247Y-67202857D01*
X106996247Y-67202857D02*
X107186723Y-67250476D01*
X107186723Y-67250476D02*
X107281961Y-67298095D01*
X107281961Y-67298095D02*
X107377200Y-67393333D01*
X107377200Y-67393333D02*
X107424819Y-67536190D01*
X107424819Y-67536190D02*
X107424819Y-67774285D01*
X107424819Y-66250476D02*
X107424819Y-66821904D01*
X107424819Y-66536190D02*
X106424819Y-66536190D01*
X106424819Y-66536190D02*
X106567676Y-66631428D01*
X106567676Y-66631428D02*
X106662914Y-66726666D01*
X106662914Y-66726666D02*
X106710533Y-66821904D01*
X107424819Y-65298095D02*
X107424819Y-65869523D01*
X107424819Y-65583809D02*
X106424819Y-65583809D01*
X106424819Y-65583809D02*
X106567676Y-65679047D01*
X106567676Y-65679047D02*
X106662914Y-65774285D01*
X106662914Y-65774285D02*
X106710533Y-65869523D01*
X107104819Y-63011904D02*
X106104819Y-63011904D01*
X107104819Y-62440476D02*
X106533390Y-62869047D01*
X106104819Y-62440476D02*
X106676247Y-63011904D01*
D11*
X85606190Y-58664979D02*
X85606190Y-59179026D01*
X85606190Y-59179026D02*
X85636428Y-59239502D01*
X85636428Y-59239502D02*
X85666666Y-59269741D01*
X85666666Y-59269741D02*
X85727142Y-59299979D01*
X85727142Y-59299979D02*
X85848095Y-59299979D01*
X85848095Y-59299979D02*
X85908571Y-59269741D01*
X85908571Y-59269741D02*
X85938809Y-59239502D01*
X85938809Y-59239502D02*
X85969047Y-59179026D01*
X85969047Y-59179026D02*
X85969047Y-58664979D01*
X86604047Y-59299979D02*
X86241190Y-59299979D01*
X86422618Y-59299979D02*
X86422618Y-58664979D01*
X86422618Y-58664979D02*
X86362142Y-58755693D01*
X86362142Y-58755693D02*
X86301666Y-58816169D01*
X86301666Y-58816169D02*
X86241190Y-58846407D01*
D10*
X103441667Y-111595700D02*
X103584524Y-111643319D01*
X103584524Y-111643319D02*
X103822619Y-111643319D01*
X103822619Y-111643319D02*
X103917857Y-111595700D01*
X103917857Y-111595700D02*
X103965476Y-111548080D01*
X103965476Y-111548080D02*
X104013095Y-111452842D01*
X104013095Y-111452842D02*
X104013095Y-111357604D01*
X104013095Y-111357604D02*
X103965476Y-111262366D01*
X103965476Y-111262366D02*
X103917857Y-111214747D01*
X103917857Y-111214747D02*
X103822619Y-111167128D01*
X103822619Y-111167128D02*
X103632143Y-111119509D01*
X103632143Y-111119509D02*
X103536905Y-111071890D01*
X103536905Y-111071890D02*
X103489286Y-111024271D01*
X103489286Y-111024271D02*
X103441667Y-110929033D01*
X103441667Y-110929033D02*
X103441667Y-110833795D01*
X103441667Y-110833795D02*
X103489286Y-110738557D01*
X103489286Y-110738557D02*
X103536905Y-110690938D01*
X103536905Y-110690938D02*
X103632143Y-110643319D01*
X103632143Y-110643319D02*
X103870238Y-110643319D01*
X103870238Y-110643319D02*
X104013095Y-110690938D01*
X104346429Y-110643319D02*
X104584524Y-111643319D01*
X104584524Y-111643319D02*
X104775000Y-110929033D01*
X104775000Y-110929033D02*
X104965476Y-111643319D01*
X104965476Y-111643319D02*
X105203572Y-110643319D01*
X105632143Y-111643319D02*
X105822619Y-111643319D01*
X105822619Y-111643319D02*
X105917857Y-111595700D01*
X105917857Y-111595700D02*
X105965476Y-111548080D01*
X105965476Y-111548080D02*
X106060714Y-111405223D01*
X106060714Y-111405223D02*
X106108333Y-111214747D01*
X106108333Y-111214747D02*
X106108333Y-110833795D01*
X106108333Y-110833795D02*
X106060714Y-110738557D01*
X106060714Y-110738557D02*
X106013095Y-110690938D01*
X106013095Y-110690938D02*
X105917857Y-110643319D01*
X105917857Y-110643319D02*
X105727381Y-110643319D01*
X105727381Y-110643319D02*
X105632143Y-110690938D01*
X105632143Y-110690938D02*
X105584524Y-110738557D01*
X105584524Y-110738557D02*
X105536905Y-110833795D01*
X105536905Y-110833795D02*
X105536905Y-111071890D01*
X105536905Y-111071890D02*
X105584524Y-111167128D01*
X105584524Y-111167128D02*
X105632143Y-111214747D01*
X105632143Y-111214747D02*
X105727381Y-111262366D01*
X105727381Y-111262366D02*
X105917857Y-111262366D01*
X105917857Y-111262366D02*
X106013095Y-111214747D01*
X106013095Y-111214747D02*
X106060714Y-111167128D01*
X106060714Y-111167128D02*
X106108333Y-111071890D01*
X103441667Y-92545700D02*
X103584524Y-92593319D01*
X103584524Y-92593319D02*
X103822619Y-92593319D01*
X103822619Y-92593319D02*
X103917857Y-92545700D01*
X103917857Y-92545700D02*
X103965476Y-92498080D01*
X103965476Y-92498080D02*
X104013095Y-92402842D01*
X104013095Y-92402842D02*
X104013095Y-92307604D01*
X104013095Y-92307604D02*
X103965476Y-92212366D01*
X103965476Y-92212366D02*
X103917857Y-92164747D01*
X103917857Y-92164747D02*
X103822619Y-92117128D01*
X103822619Y-92117128D02*
X103632143Y-92069509D01*
X103632143Y-92069509D02*
X103536905Y-92021890D01*
X103536905Y-92021890D02*
X103489286Y-91974271D01*
X103489286Y-91974271D02*
X103441667Y-91879033D01*
X103441667Y-91879033D02*
X103441667Y-91783795D01*
X103441667Y-91783795D02*
X103489286Y-91688557D01*
X103489286Y-91688557D02*
X103536905Y-91640938D01*
X103536905Y-91640938D02*
X103632143Y-91593319D01*
X103632143Y-91593319D02*
X103870238Y-91593319D01*
X103870238Y-91593319D02*
X104013095Y-91640938D01*
X104346429Y-91593319D02*
X104584524Y-92593319D01*
X104584524Y-92593319D02*
X104775000Y-91879033D01*
X104775000Y-91879033D02*
X104965476Y-92593319D01*
X104965476Y-92593319D02*
X105203572Y-91593319D01*
X105727381Y-92021890D02*
X105632143Y-91974271D01*
X105632143Y-91974271D02*
X105584524Y-91926652D01*
X105584524Y-91926652D02*
X105536905Y-91831414D01*
X105536905Y-91831414D02*
X105536905Y-91783795D01*
X105536905Y-91783795D02*
X105584524Y-91688557D01*
X105584524Y-91688557D02*
X105632143Y-91640938D01*
X105632143Y-91640938D02*
X105727381Y-91593319D01*
X105727381Y-91593319D02*
X105917857Y-91593319D01*
X105917857Y-91593319D02*
X106013095Y-91640938D01*
X106013095Y-91640938D02*
X106060714Y-91688557D01*
X106060714Y-91688557D02*
X106108333Y-91783795D01*
X106108333Y-91783795D02*
X106108333Y-91831414D01*
X106108333Y-91831414D02*
X106060714Y-91926652D01*
X106060714Y-91926652D02*
X106013095Y-91974271D01*
X106013095Y-91974271D02*
X105917857Y-92021890D01*
X105917857Y-92021890D02*
X105727381Y-92021890D01*
X105727381Y-92021890D02*
X105632143Y-92069509D01*
X105632143Y-92069509D02*
X105584524Y-92117128D01*
X105584524Y-92117128D02*
X105536905Y-92212366D01*
X105536905Y-92212366D02*
X105536905Y-92402842D01*
X105536905Y-92402842D02*
X105584524Y-92498080D01*
X105584524Y-92498080D02*
X105632143Y-92545700D01*
X105632143Y-92545700D02*
X105727381Y-92593319D01*
X105727381Y-92593319D02*
X105917857Y-92593319D01*
X105917857Y-92593319D02*
X106013095Y-92545700D01*
X106013095Y-92545700D02*
X106060714Y-92498080D01*
X106060714Y-92498080D02*
X106108333Y-92402842D01*
X106108333Y-92402842D02*
X106108333Y-92212366D01*
X106108333Y-92212366D02*
X106060714Y-92117128D01*
X106060714Y-92117128D02*
X106013095Y-92069509D01*
X106013095Y-92069509D02*
X105917857Y-92021890D01*
X84391667Y-92545700D02*
X84534524Y-92593319D01*
X84534524Y-92593319D02*
X84772619Y-92593319D01*
X84772619Y-92593319D02*
X84867857Y-92545700D01*
X84867857Y-92545700D02*
X84915476Y-92498080D01*
X84915476Y-92498080D02*
X84963095Y-92402842D01*
X84963095Y-92402842D02*
X84963095Y-92307604D01*
X84963095Y-92307604D02*
X84915476Y-92212366D01*
X84915476Y-92212366D02*
X84867857Y-92164747D01*
X84867857Y-92164747D02*
X84772619Y-92117128D01*
X84772619Y-92117128D02*
X84582143Y-92069509D01*
X84582143Y-92069509D02*
X84486905Y-92021890D01*
X84486905Y-92021890D02*
X84439286Y-91974271D01*
X84439286Y-91974271D02*
X84391667Y-91879033D01*
X84391667Y-91879033D02*
X84391667Y-91783795D01*
X84391667Y-91783795D02*
X84439286Y-91688557D01*
X84439286Y-91688557D02*
X84486905Y-91640938D01*
X84486905Y-91640938D02*
X84582143Y-91593319D01*
X84582143Y-91593319D02*
X84820238Y-91593319D01*
X84820238Y-91593319D02*
X84963095Y-91640938D01*
X85296429Y-91593319D02*
X85534524Y-92593319D01*
X85534524Y-92593319D02*
X85725000Y-91879033D01*
X85725000Y-91879033D02*
X85915476Y-92593319D01*
X85915476Y-92593319D02*
X86153572Y-91593319D01*
X86439286Y-91593319D02*
X87058333Y-91593319D01*
X87058333Y-91593319D02*
X86725000Y-91974271D01*
X86725000Y-91974271D02*
X86867857Y-91974271D01*
X86867857Y-91974271D02*
X86963095Y-92021890D01*
X86963095Y-92021890D02*
X87010714Y-92069509D01*
X87010714Y-92069509D02*
X87058333Y-92164747D01*
X87058333Y-92164747D02*
X87058333Y-92402842D01*
X87058333Y-92402842D02*
X87010714Y-92498080D01*
X87010714Y-92498080D02*
X86963095Y-92545700D01*
X86963095Y-92545700D02*
X86867857Y-92593319D01*
X86867857Y-92593319D02*
X86582143Y-92593319D01*
X86582143Y-92593319D02*
X86486905Y-92545700D01*
X86486905Y-92545700D02*
X86439286Y-92498080D01*
X65341667Y-73495700D02*
X65484524Y-73543319D01*
X65484524Y-73543319D02*
X65722619Y-73543319D01*
X65722619Y-73543319D02*
X65817857Y-73495700D01*
X65817857Y-73495700D02*
X65865476Y-73448080D01*
X65865476Y-73448080D02*
X65913095Y-73352842D01*
X65913095Y-73352842D02*
X65913095Y-73257604D01*
X65913095Y-73257604D02*
X65865476Y-73162366D01*
X65865476Y-73162366D02*
X65817857Y-73114747D01*
X65817857Y-73114747D02*
X65722619Y-73067128D01*
X65722619Y-73067128D02*
X65532143Y-73019509D01*
X65532143Y-73019509D02*
X65436905Y-72971890D01*
X65436905Y-72971890D02*
X65389286Y-72924271D01*
X65389286Y-72924271D02*
X65341667Y-72829033D01*
X65341667Y-72829033D02*
X65341667Y-72733795D01*
X65341667Y-72733795D02*
X65389286Y-72638557D01*
X65389286Y-72638557D02*
X65436905Y-72590938D01*
X65436905Y-72590938D02*
X65532143Y-72543319D01*
X65532143Y-72543319D02*
X65770238Y-72543319D01*
X65770238Y-72543319D02*
X65913095Y-72590938D01*
X66246429Y-72543319D02*
X66484524Y-73543319D01*
X66484524Y-73543319D02*
X66675000Y-72829033D01*
X66675000Y-72829033D02*
X66865476Y-73543319D01*
X66865476Y-73543319D02*
X67103572Y-72543319D01*
X68008333Y-73543319D02*
X67436905Y-73543319D01*
X67722619Y-73543319D02*
X67722619Y-72543319D01*
X67722619Y-72543319D02*
X67627381Y-72686176D01*
X67627381Y-72686176D02*
X67532143Y-72781414D01*
X67532143Y-72781414D02*
X67436905Y-72829033D01*
X84391667Y-111595700D02*
X84534524Y-111643319D01*
X84534524Y-111643319D02*
X84772619Y-111643319D01*
X84772619Y-111643319D02*
X84867857Y-111595700D01*
X84867857Y-111595700D02*
X84915476Y-111548080D01*
X84915476Y-111548080D02*
X84963095Y-111452842D01*
X84963095Y-111452842D02*
X84963095Y-111357604D01*
X84963095Y-111357604D02*
X84915476Y-111262366D01*
X84915476Y-111262366D02*
X84867857Y-111214747D01*
X84867857Y-111214747D02*
X84772619Y-111167128D01*
X84772619Y-111167128D02*
X84582143Y-111119509D01*
X84582143Y-111119509D02*
X84486905Y-111071890D01*
X84486905Y-111071890D02*
X84439286Y-111024271D01*
X84439286Y-111024271D02*
X84391667Y-110929033D01*
X84391667Y-110929033D02*
X84391667Y-110833795D01*
X84391667Y-110833795D02*
X84439286Y-110738557D01*
X84439286Y-110738557D02*
X84486905Y-110690938D01*
X84486905Y-110690938D02*
X84582143Y-110643319D01*
X84582143Y-110643319D02*
X84820238Y-110643319D01*
X84820238Y-110643319D02*
X84963095Y-110690938D01*
X85296429Y-110643319D02*
X85534524Y-111643319D01*
X85534524Y-111643319D02*
X85725000Y-110929033D01*
X85725000Y-110929033D02*
X85915476Y-111643319D01*
X85915476Y-111643319D02*
X86153572Y-110643319D01*
X86963095Y-110643319D02*
X86772619Y-110643319D01*
X86772619Y-110643319D02*
X86677381Y-110690938D01*
X86677381Y-110690938D02*
X86629762Y-110738557D01*
X86629762Y-110738557D02*
X86534524Y-110881414D01*
X86534524Y-110881414D02*
X86486905Y-111071890D01*
X86486905Y-111071890D02*
X86486905Y-111452842D01*
X86486905Y-111452842D02*
X86534524Y-111548080D01*
X86534524Y-111548080D02*
X86582143Y-111595700D01*
X86582143Y-111595700D02*
X86677381Y-111643319D01*
X86677381Y-111643319D02*
X86867857Y-111643319D01*
X86867857Y-111643319D02*
X86963095Y-111595700D01*
X86963095Y-111595700D02*
X87010714Y-111548080D01*
X87010714Y-111548080D02*
X87058333Y-111452842D01*
X87058333Y-111452842D02*
X87058333Y-111214747D01*
X87058333Y-111214747D02*
X87010714Y-111119509D01*
X87010714Y-111119509D02*
X86963095Y-111071890D01*
X86963095Y-111071890D02*
X86867857Y-111024271D01*
X86867857Y-111024271D02*
X86677381Y-111024271D01*
X86677381Y-111024271D02*
X86582143Y-111071890D01*
X86582143Y-111071890D02*
X86534524Y-111119509D01*
X86534524Y-111119509D02*
X86486905Y-111214747D01*
X65341667Y-92545700D02*
X65484524Y-92593319D01*
X65484524Y-92593319D02*
X65722619Y-92593319D01*
X65722619Y-92593319D02*
X65817857Y-92545700D01*
X65817857Y-92545700D02*
X65865476Y-92498080D01*
X65865476Y-92498080D02*
X65913095Y-92402842D01*
X65913095Y-92402842D02*
X65913095Y-92307604D01*
X65913095Y-92307604D02*
X65865476Y-92212366D01*
X65865476Y-92212366D02*
X65817857Y-92164747D01*
X65817857Y-92164747D02*
X65722619Y-92117128D01*
X65722619Y-92117128D02*
X65532143Y-92069509D01*
X65532143Y-92069509D02*
X65436905Y-92021890D01*
X65436905Y-92021890D02*
X65389286Y-91974271D01*
X65389286Y-91974271D02*
X65341667Y-91879033D01*
X65341667Y-91879033D02*
X65341667Y-91783795D01*
X65341667Y-91783795D02*
X65389286Y-91688557D01*
X65389286Y-91688557D02*
X65436905Y-91640938D01*
X65436905Y-91640938D02*
X65532143Y-91593319D01*
X65532143Y-91593319D02*
X65770238Y-91593319D01*
X65770238Y-91593319D02*
X65913095Y-91640938D01*
X66246429Y-91593319D02*
X66484524Y-92593319D01*
X66484524Y-92593319D02*
X66675000Y-91879033D01*
X66675000Y-91879033D02*
X66865476Y-92593319D01*
X66865476Y-92593319D02*
X67103572Y-91593319D01*
X67913095Y-91926652D02*
X67913095Y-92593319D01*
X67675000Y-91545700D02*
X67436905Y-92259985D01*
X67436905Y-92259985D02*
X68055952Y-92259985D01*
X65341667Y-111595700D02*
X65484524Y-111643319D01*
X65484524Y-111643319D02*
X65722619Y-111643319D01*
X65722619Y-111643319D02*
X65817857Y-111595700D01*
X65817857Y-111595700D02*
X65865476Y-111548080D01*
X65865476Y-111548080D02*
X65913095Y-111452842D01*
X65913095Y-111452842D02*
X65913095Y-111357604D01*
X65913095Y-111357604D02*
X65865476Y-111262366D01*
X65865476Y-111262366D02*
X65817857Y-111214747D01*
X65817857Y-111214747D02*
X65722619Y-111167128D01*
X65722619Y-111167128D02*
X65532143Y-111119509D01*
X65532143Y-111119509D02*
X65436905Y-111071890D01*
X65436905Y-111071890D02*
X65389286Y-111024271D01*
X65389286Y-111024271D02*
X65341667Y-110929033D01*
X65341667Y-110929033D02*
X65341667Y-110833795D01*
X65341667Y-110833795D02*
X65389286Y-110738557D01*
X65389286Y-110738557D02*
X65436905Y-110690938D01*
X65436905Y-110690938D02*
X65532143Y-110643319D01*
X65532143Y-110643319D02*
X65770238Y-110643319D01*
X65770238Y-110643319D02*
X65913095Y-110690938D01*
X66246429Y-110643319D02*
X66484524Y-111643319D01*
X66484524Y-111643319D02*
X66675000Y-110929033D01*
X66675000Y-110929033D02*
X66865476Y-111643319D01*
X66865476Y-111643319D02*
X67103572Y-110643319D01*
X67960714Y-110643319D02*
X67484524Y-110643319D01*
X67484524Y-110643319D02*
X67436905Y-111119509D01*
X67436905Y-111119509D02*
X67484524Y-111071890D01*
X67484524Y-111071890D02*
X67579762Y-111024271D01*
X67579762Y-111024271D02*
X67817857Y-111024271D01*
X67817857Y-111024271D02*
X67913095Y-111071890D01*
X67913095Y-111071890D02*
X67960714Y-111119509D01*
X67960714Y-111119509D02*
X68008333Y-111214747D01*
X68008333Y-111214747D02*
X68008333Y-111452842D01*
X68008333Y-111452842D02*
X67960714Y-111548080D01*
X67960714Y-111548080D02*
X67913095Y-111595700D01*
X67913095Y-111595700D02*
X67817857Y-111643319D01*
X67817857Y-111643319D02*
X67579762Y-111643319D01*
X67579762Y-111643319D02*
X67484524Y-111595700D01*
X67484524Y-111595700D02*
X67436905Y-111548080D01*
X84391667Y-73495700D02*
X84534524Y-73543319D01*
X84534524Y-73543319D02*
X84772619Y-73543319D01*
X84772619Y-73543319D02*
X84867857Y-73495700D01*
X84867857Y-73495700D02*
X84915476Y-73448080D01*
X84915476Y-73448080D02*
X84963095Y-73352842D01*
X84963095Y-73352842D02*
X84963095Y-73257604D01*
X84963095Y-73257604D02*
X84915476Y-73162366D01*
X84915476Y-73162366D02*
X84867857Y-73114747D01*
X84867857Y-73114747D02*
X84772619Y-73067128D01*
X84772619Y-73067128D02*
X84582143Y-73019509D01*
X84582143Y-73019509D02*
X84486905Y-72971890D01*
X84486905Y-72971890D02*
X84439286Y-72924271D01*
X84439286Y-72924271D02*
X84391667Y-72829033D01*
X84391667Y-72829033D02*
X84391667Y-72733795D01*
X84391667Y-72733795D02*
X84439286Y-72638557D01*
X84439286Y-72638557D02*
X84486905Y-72590938D01*
X84486905Y-72590938D02*
X84582143Y-72543319D01*
X84582143Y-72543319D02*
X84820238Y-72543319D01*
X84820238Y-72543319D02*
X84963095Y-72590938D01*
X85296429Y-72543319D02*
X85534524Y-73543319D01*
X85534524Y-73543319D02*
X85725000Y-72829033D01*
X85725000Y-72829033D02*
X85915476Y-73543319D01*
X85915476Y-73543319D02*
X86153572Y-72543319D01*
X86486905Y-72638557D02*
X86534524Y-72590938D01*
X86534524Y-72590938D02*
X86629762Y-72543319D01*
X86629762Y-72543319D02*
X86867857Y-72543319D01*
X86867857Y-72543319D02*
X86963095Y-72590938D01*
X86963095Y-72590938D02*
X87010714Y-72638557D01*
X87010714Y-72638557D02*
X87058333Y-72733795D01*
X87058333Y-72733795D02*
X87058333Y-72829033D01*
X87058333Y-72829033D02*
X87010714Y-72971890D01*
X87010714Y-72971890D02*
X86439286Y-73543319D01*
X86439286Y-73543319D02*
X87058333Y-73543319D01*
X98885417Y-74050950D02*
X99028274Y-74098569D01*
X99028274Y-74098569D02*
X99266369Y-74098569D01*
X99266369Y-74098569D02*
X99361607Y-74050950D01*
X99361607Y-74050950D02*
X99409226Y-74003330D01*
X99409226Y-74003330D02*
X99456845Y-73908092D01*
X99456845Y-73908092D02*
X99456845Y-73812854D01*
X99456845Y-73812854D02*
X99409226Y-73717616D01*
X99409226Y-73717616D02*
X99361607Y-73669997D01*
X99361607Y-73669997D02*
X99266369Y-73622378D01*
X99266369Y-73622378D02*
X99075893Y-73574759D01*
X99075893Y-73574759D02*
X98980655Y-73527140D01*
X98980655Y-73527140D02*
X98933036Y-73479521D01*
X98933036Y-73479521D02*
X98885417Y-73384283D01*
X98885417Y-73384283D02*
X98885417Y-73289045D01*
X98885417Y-73289045D02*
X98933036Y-73193807D01*
X98933036Y-73193807D02*
X98980655Y-73146188D01*
X98980655Y-73146188D02*
X99075893Y-73098569D01*
X99075893Y-73098569D02*
X99313988Y-73098569D01*
X99313988Y-73098569D02*
X99456845Y-73146188D01*
X99790179Y-73098569D02*
X100028274Y-74098569D01*
X100028274Y-74098569D02*
X100218750Y-73384283D01*
X100218750Y-73384283D02*
X100409226Y-74098569D01*
X100409226Y-74098569D02*
X100647322Y-73098569D01*
X100933036Y-73098569D02*
X101599702Y-73098569D01*
X101599702Y-73098569D02*
X101171131Y-74098569D01*
D12*
%TO.C,D3*%
X73922500Y-52565000D02*
X73922500Y-49165000D01*
X73922500Y-52565000D02*
X73322500Y-53165000D01*
X68322500Y-53165000D02*
X73322500Y-53165000D01*
X68322500Y-49165000D02*
X73922500Y-49165000D01*
X68322500Y-49165000D02*
X68322500Y-53165000D01*
%TO.C,D2*%
X59850000Y-50050000D02*
X59850000Y-53450000D01*
X59850000Y-50050000D02*
X60450000Y-49450000D01*
X65450000Y-49450000D02*
X60450000Y-49450000D01*
X65450000Y-53450000D02*
X59850000Y-53450000D01*
X65450000Y-53450000D02*
X65450000Y-49450000D01*
%TO.C,D4*%
X73922500Y-57685000D02*
X73922500Y-54285000D01*
X73922500Y-57685000D02*
X73322500Y-58285000D01*
X68322500Y-58285000D02*
X73322500Y-58285000D01*
X68322500Y-54285000D02*
X73922500Y-54285000D01*
X68322500Y-54285000D02*
X68322500Y-58285000D01*
%TO.C,D5*%
X73922500Y-62805000D02*
X73922500Y-59405000D01*
X73922500Y-62805000D02*
X73322500Y-63405000D01*
X68322500Y-63405000D02*
X73322500Y-63405000D01*
X68322500Y-59405000D02*
X73922500Y-59405000D01*
X68322500Y-59405000D02*
X68322500Y-63405000D01*
%TO.C,D6*%
X73922500Y-67925000D02*
X73922500Y-64525000D01*
X73922500Y-67925000D02*
X73322500Y-68525000D01*
X68322500Y-68525000D02*
X73322500Y-68525000D01*
X68322500Y-64525000D02*
X73922500Y-64525000D01*
X68322500Y-64525000D02*
X68322500Y-68525000D01*
%TO.C,D1*%
X65350000Y-57475000D02*
X65350000Y-54075000D01*
X65350000Y-57475000D02*
X64750000Y-58075000D01*
X59750000Y-58075000D02*
X64750000Y-58075000D01*
X59750000Y-54075000D02*
X65350000Y-54075000D01*
X59750000Y-54075000D02*
X59750000Y-58075000D01*
%TO.C,D13*%
X109520000Y-53080000D02*
X107280000Y-53080000D01*
X107280000Y-57320000D01*
X109520000Y-57320000D01*
X109520000Y-53080000D01*
X108400000Y-57970000D02*
X108400000Y-57320000D01*
X109520000Y-53920000D02*
X107280000Y-53920000D01*
X109520000Y-53800000D02*
X107280000Y-53800000D01*
X109520000Y-53680000D02*
X107280000Y-53680000D01*
X108400000Y-52430000D02*
X108400000Y-53080000D01*
%TO.C,D14*%
X105970000Y-53080000D02*
X103730000Y-53080000D01*
X103730000Y-57320000D01*
X105970000Y-57320000D01*
X105970000Y-53080000D01*
X104850000Y-57970000D02*
X104850000Y-57320000D01*
X105970000Y-53920000D02*
X103730000Y-53920000D01*
X105970000Y-53800000D02*
X103730000Y-53800000D01*
X105970000Y-53680000D02*
X103730000Y-53680000D01*
X104850000Y-52430000D02*
X104850000Y-53080000D01*
%TO.C,D12*%
X102420000Y-64440000D02*
X100180000Y-64440000D01*
X100180000Y-68680000D01*
X102420000Y-68680000D01*
X102420000Y-64440000D01*
X101300000Y-69330000D02*
X101300000Y-68680000D01*
X102420000Y-65280000D02*
X100180000Y-65280000D01*
X102420000Y-65160000D02*
X100180000Y-65160000D01*
X102420000Y-65040000D02*
X100180000Y-65040000D01*
X101300000Y-63790000D02*
X101300000Y-64440000D01*
%TO.C,D7*%
X63630000Y-67070000D02*
X65870000Y-67070000D01*
X65870000Y-62830000D01*
X63630000Y-62830000D01*
X63630000Y-67070000D01*
X64750000Y-62180000D02*
X64750000Y-62830000D01*
X63630000Y-66230000D02*
X65870000Y-66230000D01*
X63630000Y-66350000D02*
X65870000Y-66350000D01*
X63630000Y-66470000D02*
X65870000Y-66470000D01*
X64750000Y-67720000D02*
X64750000Y-67070000D01*
%TO.C,D9*%
X102570000Y-53080000D02*
X100330000Y-53080000D01*
X100330000Y-57320000D01*
X102570000Y-57320000D01*
X102570000Y-53080000D01*
X101450000Y-57970000D02*
X101450000Y-57320000D01*
X102570000Y-53920000D02*
X100330000Y-53920000D01*
X102570000Y-53800000D02*
X100330000Y-53800000D01*
X102570000Y-53680000D02*
X100330000Y-53680000D01*
X101450000Y-52430000D02*
X101450000Y-53080000D01*
%TO.C,D10*%
X109520000Y-64440000D02*
X107280000Y-64440000D01*
X107280000Y-68680000D01*
X109520000Y-68680000D01*
X109520000Y-64440000D01*
X108400000Y-69330000D02*
X108400000Y-68680000D01*
X109520000Y-65280000D02*
X107280000Y-65280000D01*
X109520000Y-65160000D02*
X107280000Y-65160000D01*
X109520000Y-65040000D02*
X107280000Y-65040000D01*
X108400000Y-63790000D02*
X108400000Y-64440000D01*
%TO.C,D8*%
X60130000Y-67070000D02*
X62370000Y-67070000D01*
X62370000Y-62830000D01*
X60130000Y-62830000D01*
X60130000Y-67070000D01*
X61250000Y-62180000D02*
X61250000Y-62830000D01*
X60130000Y-66230000D02*
X62370000Y-66230000D01*
X60130000Y-66350000D02*
X62370000Y-66350000D01*
X60130000Y-66470000D02*
X62370000Y-66470000D01*
X61250000Y-67720000D02*
X61250000Y-67070000D01*
%TO.C,D11*%
X105970000Y-64440000D02*
X103730000Y-64440000D01*
X103730000Y-68680000D01*
X105970000Y-68680000D01*
X105970000Y-64440000D01*
X104850000Y-69330000D02*
X104850000Y-68680000D01*
X105970000Y-65280000D02*
X103730000Y-65280000D01*
X105970000Y-65160000D02*
X103730000Y-65160000D01*
X105970000Y-65040000D02*
X103730000Y-65040000D01*
X104850000Y-63790000D02*
X104850000Y-64440000D01*
D13*
%TO.C,U1*%
X77200000Y-68289000D02*
X77200000Y-51144000D01*
X79105000Y-70194000D02*
X93075000Y-70194000D01*
X81595000Y-49239000D02*
X81598728Y-48328728D01*
X82098728Y-47829000D02*
X90094000Y-47829000D01*
X90594000Y-48329000D02*
X90594000Y-49239000D01*
D14*
X93075000Y-49239000D02*
X79105000Y-49239000D01*
D13*
X93075000Y-49239000D02*
X79105000Y-49239000D01*
X94980000Y-68289000D02*
X94980000Y-51144000D01*
X77200000Y-51144000D02*
G75*
G02*
X79105000Y-49239000I1905001J-1D01*
G01*
X79105000Y-70194000D02*
G75*
G02*
X77200000Y-68289000I1J1905001D01*
G01*
X81598728Y-48328728D02*
G75*
G02*
X82098728Y-47829001I500018J-291D01*
G01*
X90094000Y-47829000D02*
G75*
G02*
X90594000Y-48329000I0J-500000D01*
G01*
X93075000Y-49239000D02*
G75*
G02*
X94980000Y-51144000I0J-1905000D01*
G01*
X94980000Y-68289000D02*
G75*
G02*
X93075000Y-70194000I-1905000J0D01*
G01*
D15*
X77392000Y-49480000D02*
G75*
G02*
X76888000Y-49480000I-252000J0D01*
G01*
X76888000Y-49480000D02*
G75*
G02*
X77392000Y-49480000I252000J0D01*
G01*
X78535000Y-50360000D02*
G75*
G02*
X78031000Y-50360000I-252000J0D01*
G01*
X78031000Y-50360000D02*
G75*
G02*
X78535000Y-50360000I252000J0D01*
G01*
D12*
%TO.C,SW9*%
X97790000Y-112077500D02*
X111760000Y-112077500D01*
X97790000Y-126047500D02*
X97790000Y-112077500D01*
X111760000Y-112077500D02*
X111760000Y-126047500D01*
X111760000Y-126047500D02*
X97790000Y-126047500D01*
%TO.C,SW8*%
X97790000Y-93027500D02*
X111760000Y-93027500D01*
X97790000Y-106997500D02*
X97790000Y-93027500D01*
X111760000Y-93027500D02*
X111760000Y-106997500D01*
X111760000Y-106997500D02*
X97790000Y-106997500D01*
%TO.C,SW3*%
X78740000Y-93027500D02*
X92710000Y-93027500D01*
X78740000Y-106997500D02*
X78740000Y-93027500D01*
X92710000Y-93027500D02*
X92710000Y-106997500D01*
X92710000Y-106997500D02*
X78740000Y-106997500D01*
%TO.C,SW1*%
X59690000Y-73977500D02*
X73660000Y-73977500D01*
X59690000Y-87947500D02*
X59690000Y-73977500D01*
X73660000Y-73977500D02*
X73660000Y-87947500D01*
X73660000Y-87947500D02*
X59690000Y-87947500D01*
%TO.C,SW6*%
X78740000Y-112077500D02*
X92710000Y-112077500D01*
X78740000Y-126047500D02*
X78740000Y-112077500D01*
X92710000Y-112077500D02*
X92710000Y-126047500D01*
X92710000Y-126047500D02*
X78740000Y-126047500D01*
%TO.C,SW4*%
X59690000Y-93027500D02*
X73660000Y-93027500D01*
X59690000Y-106997500D02*
X59690000Y-93027500D01*
X73660000Y-93027500D02*
X73660000Y-106997500D01*
X73660000Y-106997500D02*
X59690000Y-106997500D01*
%TO.C,SW5*%
X59690000Y-112077500D02*
X73660000Y-112077500D01*
X59690000Y-126047500D02*
X59690000Y-112077500D01*
X73660000Y-112077500D02*
X73660000Y-126047500D01*
X73660000Y-126047500D02*
X59690000Y-126047500D01*
%TO.C,SW2*%
X78740000Y-73977500D02*
X92710000Y-73977500D01*
X78740000Y-87947500D02*
X78740000Y-73977500D01*
X92710000Y-73977500D02*
X92710000Y-87947500D01*
X92710000Y-87947500D02*
X78740000Y-87947500D01*
%TO.C,SW7*%
X97118750Y-76743750D02*
X97718750Y-76743750D01*
X97418750Y-77043750D02*
X97118750Y-76743750D01*
X97718750Y-76743750D02*
X97418750Y-77043750D01*
X98818750Y-74943750D02*
X98818750Y-86743750D01*
X102918750Y-74943750D02*
X98818750Y-74943750D01*
X102918750Y-86743750D02*
X98818750Y-86743750D01*
X104418750Y-80843750D02*
X105418750Y-80843750D01*
X104918750Y-80343750D02*
X104918750Y-81343750D01*
X106918750Y-74943750D02*
X111018750Y-74943750D01*
X111018750Y-74943750D02*
X111018750Y-77343750D01*
X111018750Y-79543750D02*
X111018750Y-82143750D01*
X111018750Y-84343750D02*
X111018750Y-86743750D01*
X111018750Y-86743750D02*
X106918750Y-86743750D01*
X107918750Y-80843750D02*
G75*
G02*
X101918750Y-80843750I-3000000J0D01*
G01*
X101918750Y-80843750D02*
G75*
G02*
X107918750Y-80843750I3000000J0D01*
G01*
%TD*%
M02*
